<?xml version="1.0" encoding="UTF-8" standalone="no"?>
<!-- Created with Inkscape (http://www.inkscape.org/) -->

<svg
   height="1000"
   width="1000"
   version="1.1"
   id="svg1"
   xml:space="preserve"
   xmlns:xlink="http://www.w3.org/1999/xlink"
   xmlns="http://www.w3.org/2000/svg"
   xmlns:svg="http://www.w3.org/2000/svg"
   xmlns:rdf="http://www.w3.org/1999/02/22-rdf-syntax-ns#"
   xmlns:cc="http://creativecommons.org/ns#"
   xmlns:dc="http://purl.org/dc/elements/1.1/"><title
     id="title2">Prospero Font SVG Source</title><defs
     id="defs4" /><metadata
     id="metadata7"><rdf:RDF><cc:Work
         rdf:about=""><dc:format>image/svg+xml</dc:format><dc:type
           rdf:resource="http://purl.org/dc/dcmitype/StillImage" /><dc:title>Prospero Font SVG Source</dc:title><dc:date>July 18, 2026</dc:date><dc:creator><cc:Agent><dc:title>Dave Jeffery</dc:title></cc:Agent></dc:creator><dc:contributor><cc:Agent><dc:title>Font originally designed by Alan Jeapes of the British Broadcasting Corporation.</dc:title></cc:Agent></dc:contributor><cc:license
           rdf:resource="http://scripts.sil.org/OFL" /><dc:rights><cc:Agent><dc:title>released under Open Font Licence</dc:title></cc:Agent></dc:rights><dc:publisher><cc:Agent><dc:title>Dave Jeffery</dc:title></cc:Agent></dc:publisher><dc:language>British English</dc:language><dc:subject><rdf:Bag><rdf:li>COW</rdf:li><rdf:li>Jeapes</rdf:li><rdf:li>BBC</rdf:li><rdf:li>BBC ONE</rdf:li><rdf:li>BBC1</rdf:li><rdf:li>GEM</rdf:li><rdf:li>1985</rdf:li></rdf:Bag></dc:subject><dc:source>Scan obtained by Mark Boulton from Alan Jeapes's son.</dc:source></cc:Work><cc:License
         rdf:about="http://scripts.sil.org/OFL"><cc:permits
           rdf:resource="http://scripts.sil.org/pub/OFL/Reproduction" /><cc:permits
           rdf:resource="http://scripts.sil.org/pub/OFL/Distribution" /><cc:permits
           rdf:resource="http://scripts.sil.org/pub/OFL/Embedding" /><cc:permits
           rdf:resource="http://scripts.sil.org/pub/OFL/DerivativeWorks" /><cc:requires
           rdf:resource="http://scripts.sil.org/pub/OFL/Notice" /><cc:requires
           rdf:resource="http://scripts.sil.org/pub/OFL/Attribution" /><cc:requires
           rdf:resource="http://scripts.sil.org/pub/OFL/ShareAlike" /><cc:requires
           rdf:resource="http://scripts.sil.org/pub/OFL/DerivativeRenaming" /><cc:requires
           rdf:resource="http://scripts.sil.org/pub/OFL/BundlingWhenSelling" /></cc:License></rdf:RDF></metadata><g
     id="layer1"
     style="display:none"
     transform="translate(-34378.828,-187.73312)"><image
       width="12143.697"
       height="9107.7715"
       preserveAspectRatio="none"
       xlink:href="../source_image.jpeg"
       id="image1"
       x="30284.045"
       y="-4913.6143"
       transform="rotate(-0.42706528)"
       style="display:none" /></g><g
     id="layer35"
     transform="translate(-34340)"><path
       id="path66"
       style="opacity:1;fill:#000000;fill-opacity:1"
       d="m 34832.787,90.863281 c -127.963,0 -226.537,91.136719 -226.537,203.886719 0,112.75 109.809,188.0346 143.555,220 -126.5,77.25 -167.555,134 -167.555,239.25 0,110.61396 68.021,218 244,218 188,0 269.25,-131.09315 269.25,-243 0,-144.43377 -170.535,-233.58008 -170.535,-233.58008 -1.414,-1.41421 -7.334,-3.45956 -7.324,-6.63281 0.01,-2.56715 2.092,-5.59281 4.064,-6.54102 4.815,-2.31527 144.074,-79.79059 144.074,-211.24609 0,-41.01251 -36.418,-180.136719 -232.992,-180.136719 z m 1.414,53.740239 c 62.679,0 149.555,20.50526 149.555,117.3789 0,115.2584 -108.541,199.4043 -108.541,199.4043 -6.364,-1.41421 -170.768,-110.30794 -170.768,-207.88867 0,-66.46804 59.202,-108.89453 129.754,-108.89453 z m -42.072,398.10156 c 68,53.5 197.637,113.77343 197.637,234.75976 0,127.98633 -122.694,145.60519 -157.508,144.7793 C 34755.852,920.43155 34671,862.5 34671,759.25 c 0,-122.75 74.129,-169.04492 121.129,-216.54492 z" /></g></svg>
