<?xml version="1.0" encoding="UTF-8" standalone="no"?>
<!-- Created with Inkscape (http://www.inkscape.org/) -->

<svg
   height="1000"
   width="1000"
   version="1.1"
   id="svg1"
   xml:space="preserve"
   xmlns:xlink="http://www.w3.org/1999/xlink"
   xmlns="http://www.w3.org/2000/svg"
   xmlns:svg="http://www.w3.org/2000/svg"
   xmlns:rdf="http://www.w3.org/1999/02/22-rdf-syntax-ns#"
   xmlns:cc="http://creativecommons.org/ns#"
   xmlns:dc="http://purl.org/dc/elements/1.1/"><title
     id="title2">Prospero Font SVG Source</title><defs
     id="defs4" /><metadata
     id="metadata7"><rdf:RDF><cc:Work
         rdf:about=""><dc:format>image/svg+xml</dc:format><dc:type
           rdf:resource="http://purl.org/dc/dcmitype/StillImage" /><dc:title>Prospero Font SVG Source</dc:title><dc:date>July 18, 2026</dc:date><dc:creator><cc:Agent><dc:title>Dave Jeffery</dc:title></cc:Agent></dc:creator><dc:contributor><cc:Agent><dc:title>Font originally designed by Alan Jeapes of the British Broadcasting Corporation.</dc:title></cc:Agent></dc:contributor><cc:license
           rdf:resource="http://scripts.sil.org/OFL" /><dc:rights><cc:Agent><dc:title>released under Open Font Licence</dc:title></cc:Agent></dc:rights><dc:publisher><cc:Agent><dc:title>Dave Jeffery</dc:title></cc:Agent></dc:publisher><dc:language>British English</dc:language><dc:subject><rdf:Bag><rdf:li>COW</rdf:li><rdf:li>Jeapes</rdf:li><rdf:li>BBC</rdf:li><rdf:li>BBC ONE</rdf:li><rdf:li>BBC1</rdf:li><rdf:li>GEM</rdf:li><rdf:li>1985</rdf:li></rdf:Bag></dc:subject><dc:source>Scan obtained by Mark Boulton from Alan Jeapes's son.</dc:source></cc:Work><cc:License
         rdf:about="http://scripts.sil.org/OFL"><cc:permits
           rdf:resource="http://scripts.sil.org/pub/OFL/Reproduction" /><cc:permits
           rdf:resource="http://scripts.sil.org/pub/OFL/Distribution" /><cc:permits
           rdf:resource="http://scripts.sil.org/pub/OFL/Embedding" /><cc:permits
           rdf:resource="http://scripts.sil.org/pub/OFL/DerivativeWorks" /><cc:requires
           rdf:resource="http://scripts.sil.org/pub/OFL/Notice" /><cc:requires
           rdf:resource="http://scripts.sil.org/pub/OFL/Attribution" /><cc:requires
           rdf:resource="http://scripts.sil.org/pub/OFL/ShareAlike" /><cc:requires
           rdf:resource="http://scripts.sil.org/pub/OFL/DerivativeRenaming" /><cc:requires
           rdf:resource="http://scripts.sil.org/pub/OFL/BundlingWhenSelling" /></cc:License></rdf:RDF></metadata><g
     id="layer1"
     style="display:none"
     transform="translate(-14204.828,-187.73312)"><image
       width="12064.083"
       height="9048.0625"
       preserveAspectRatio="none"
       xlink:href="../source_image.jpeg"
       id="image1"
       x="13666.702"
       y="-2434.8567"
       transform="rotate(-0.30790777)"
       style="display:none" /></g><g
     id="layer18"
     transform="translate(-14140)"><path
       id="path41"
       style="opacity:1;fill:#000000;fill-opacity:1"
       d="m 14621.5,83 -285.977,785.71289 c -14.026,38.53562 -64.648,93.39902 -93.023,93.28711 -3.319,-0.0131 -6,2.39658 -6,5 0,2.60342 2.502,5 6,5 h 181.064 c 3.156,0 5.5,-2.39658 5.5,-5 0,-2.60342 -2.544,-5 -5.5,-5 -3.607,0 -42.866,-16.81989 -42.866,-44.93369 0,-13.92791 5.488,-36.86319 5.488,-36.86319 L 14466.877,658.5 h 284.041 l 80.894,190.57617 c 9.428,22.2112 13.207,43.5247 13.207,71.17296 0,16.94694 -19.64,41.75087 -29.011,41.75087 -1.939,0 -4,2.86563 -4,5 0,2.13437 1.999,5 4,5 h 236.705 c 2.829,0 4.619,-2.73107 4.619,-5 0,-2.26893 -2.369,-5 -4.619,-5 -14.751,0 -71.149,-30.74313 -92.414,-80.83984 z M 14597.998,298.24609 14729.057,607 h -243.434 z" /></g></svg>
