<?xml version="1.0" encoding="UTF-8" standalone="no"?>
<!-- Created with Inkscape (http://www.inkscape.org/) -->

<svg
   height="1000"
   width="1000"
   version="1.1"
   id="svg1"
   xml:space="preserve"
   xmlns:xlink="http://www.w3.org/1999/xlink"
   xmlns="http://www.w3.org/2000/svg"
   xmlns:svg="http://www.w3.org/2000/svg"
   xmlns:rdf="http://www.w3.org/1999/02/22-rdf-syntax-ns#"
   xmlns:cc="http://creativecommons.org/ns#"
   xmlns:dc="http://purl.org/dc/elements/1.1/"><title
     id="title2">Prospero Font SVG Source</title><defs
     id="defs4" /><metadata
     id="metadata7"><rdf:RDF><cc:Work
         rdf:about=""><dc:format>image/svg+xml</dc:format><dc:type
           rdf:resource="http://purl.org/dc/dcmitype/StillImage" /><dc:title>Prospero Font SVG Source</dc:title><dc:date>July 18, 2026</dc:date><dc:creator><cc:Agent><dc:title>Dave Jeffery</dc:title></cc:Agent></dc:creator><dc:contributor><cc:Agent><dc:title>Font originally designed by Alan Jeapes of the British Broadcasting Corporation.</dc:title></cc:Agent></dc:contributor><cc:license
           rdf:resource="http://scripts.sil.org/OFL" /><dc:rights><cc:Agent><dc:title>released under Open Font Licence</dc:title></cc:Agent></dc:rights><dc:publisher><cc:Agent><dc:title>Dave Jeffery</dc:title></cc:Agent></dc:publisher><dc:language>British English</dc:language><dc:subject><rdf:Bag><rdf:li>COW</rdf:li><rdf:li>Jeapes</rdf:li><rdf:li>BBC</rdf:li><rdf:li>BBC ONE</rdf:li><rdf:li>BBC1</rdf:li><rdf:li>GEM</rdf:li><rdf:li>1985</rdf:li></rdf:Bag></dc:subject><dc:source>Scan obtained by Mark Boulton from Alan Jeapes's son.</dc:source></cc:Work><cc:License
         rdf:about="http://scripts.sil.org/OFL"><cc:permits
           rdf:resource="http://scripts.sil.org/pub/OFL/Reproduction" /><cc:permits
           rdf:resource="http://scripts.sil.org/pub/OFL/Distribution" /><cc:permits
           rdf:resource="http://scripts.sil.org/pub/OFL/Embedding" /><cc:permits
           rdf:resource="http://scripts.sil.org/pub/OFL/DerivativeWorks" /><cc:requires
           rdf:resource="http://scripts.sil.org/pub/OFL/Notice" /><cc:requires
           rdf:resource="http://scripts.sil.org/pub/OFL/Attribution" /><cc:requires
           rdf:resource="http://scripts.sil.org/pub/OFL/ShareAlike" /><cc:requires
           rdf:resource="http://scripts.sil.org/pub/OFL/DerivativeRenaming" /><cc:requires
           rdf:resource="http://scripts.sil.org/pub/OFL/BundlingWhenSelling" /></cc:License></rdf:RDF></metadata><g
     id="layer1"
     style="display:none"
     transform="translate(-47508.828,-187.73312)"><image
       width="12143.697"
       height="9107.7715"
       preserveAspectRatio="none"
       xlink:href="../source_image.jpeg"
       id="image1"
       x="37546.199"
       y="-4879.5269"
       transform="rotate(-0.42706528)"
       style="display:none" /></g><g
     id="layer48"
     transform="translate(-47470)"><path
       id="path82"
       style="opacity:1;fill:#000000;fill-opacity:1"
       d="m 47945.729,95.458984 c -112.974,0 -202.233,77.041016 -202.233,210.011716 0,91.92389 52.521,155.90077 60.547,163.69532 1.885,1.83092 3.089,4.35032 2.65,6.71679 -0.628,3.38227 -4.018,6.24095 -6.98,7.60157 -124.157,57.03097 -194.809,168.70499 -194.809,263.51562 0,94.81063 40.482,231.10547 251.907,231.10547 159.099,0 226.689,-113.85547 226.689,-113.85547 0,0 90.354,112.26367 169.289,112.26367 73.186,0 117.211,-82.63867 117.211,-82.63867 0,0 -15.155,9.90234 -36.953,9.90234 -44.547,0 -126.886,-76.3331 -175.717,-130.55664 -2.245,-2.49325 -3.431,-2.53032 -3.504,-5.88476 -0.08,-3.87413 3.776,-8.36369 4.918,-10.37696 35.409,-62.43362 55.061,-131.00258 64.402,-175.42382 8.465,-40.25483 26.595,-83.65297 79.672,-97.875 3.636,-0.9744 8.662,-3.27931 8.662,-7.2461 0,-3.96679 -4.95,-5.48047 -11.668,-5.48047 h -201.701 c -5.616,0 -7.518,4.01726 -7.601,7.60157 -0.08,3.58431 3.875,6.7351 7.248,7.95507 21.715,7.853 58.625,36.72823 58.625,80.48047 0,46.53015 -11.52,166.08789 -28.707,166.08789 -22.168,0 -198.752,-267.52564 -199.176,-268.30859 -0.338,-0.62401 -0.572,-1.53747 -0.572,-2.60938 0,-2.57202 1.346,-6.05603 5.822,-8.64062 3.008,-1.73669 193.5,-75.5 193.5,-199.5 0,-113.5 -88.204,-158.541016 -181.521,-158.541016 z M 47941.5,143.5 c 52.205,0 94,29 94,86.5 0,116.5 -129.172,185.31445 -129.172,185.31445 C 47891.125,396.92967 47847.5,327 47847.5,253.5 c 0,-81 45.913,-110 94,-110 z m -118,381 c 26.163,53.74012 227.879,307.48242 227.879,307.48242 0,0 -47.629,65.51758 -149.379,65.51758 -173.168,0 -192.285,-158.26483 -192.285,-190.68945 0,-91.46804 95.173,-182.31055 113.785,-182.31055 z" /></g></svg>
