<?xml version="1.0" encoding="UTF-8" standalone="no"?>
<!-- Created with Inkscape (http://www.inkscape.org/) -->

<svg
   height="1000"
   width="1000"
   version="1.1"
   id="svg1"
   xml:space="preserve"
   xmlns:xlink="http://www.w3.org/1999/xlink"
   xmlns="http://www.w3.org/2000/svg"
   xmlns:svg="http://www.w3.org/2000/svg"
   xmlns:rdf="http://www.w3.org/1999/02/22-rdf-syntax-ns#"
   xmlns:cc="http://creativecommons.org/ns#"
   xmlns:dc="http://purl.org/dc/elements/1.1/"><title
     id="title2">Prospero Font SVG Source</title><defs
     id="defs4" /><metadata
     id="metadata7"><rdf:RDF><cc:Work
         rdf:about=""><dc:format>image/svg+xml</dc:format><dc:type
           rdf:resource="http://purl.org/dc/dcmitype/StillImage" /><dc:title>Prospero Font SVG Source</dc:title><dc:date>July 18, 2026</dc:date><dc:creator><cc:Agent><dc:title>Dave Jeffery</dc:title></cc:Agent></dc:creator><dc:contributor><cc:Agent><dc:title>Font originally designed by Alan Jeapes of the British Broadcasting Corporation.</dc:title></cc:Agent></dc:contributor><cc:license
           rdf:resource="http://scripts.sil.org/OFL" /><dc:rights><cc:Agent><dc:title>released under Open Font Licence</dc:title></cc:Agent></dc:rights><dc:publisher><cc:Agent><dc:title>Dave Jeffery</dc:title></cc:Agent></dc:publisher><dc:language>British English</dc:language><dc:subject><rdf:Bag><rdf:li>COW</rdf:li><rdf:li>Jeapes</rdf:li><rdf:li>BBC</rdf:li><rdf:li>BBC ONE</rdf:li><rdf:li>BBC1</rdf:li><rdf:li>GEM</rdf:li><rdf:li>1985</rdf:li></rdf:Bag></dc:subject><dc:source>Scan obtained by Mark Boulton from Alan Jeapes's son.</dc:source></cc:Work><cc:License
         rdf:about="http://scripts.sil.org/OFL"><cc:permits
           rdf:resource="http://scripts.sil.org/pub/OFL/Reproduction" /><cc:permits
           rdf:resource="http://scripts.sil.org/pub/OFL/Distribution" /><cc:permits
           rdf:resource="http://scripts.sil.org/pub/OFL/Embedding" /><cc:permits
           rdf:resource="http://scripts.sil.org/pub/OFL/DerivativeWorks" /><cc:requires
           rdf:resource="http://scripts.sil.org/pub/OFL/Notice" /><cc:requires
           rdf:resource="http://scripts.sil.org/pub/OFL/Attribution" /><cc:requires
           rdf:resource="http://scripts.sil.org/pub/OFL/ShareAlike" /><cc:requires
           rdf:resource="http://scripts.sil.org/pub/OFL/DerivativeRenaming" /><cc:requires
           rdf:resource="http://scripts.sil.org/pub/OFL/BundlingWhenSelling" /></cc:License></rdf:RDF></metadata><g
     id="layer1"
     style="display:none"
     transform="translate(-13194.828,-187.73312)"><image
       width="12064.083"
       height="9048.0625"
       preserveAspectRatio="none"
       xlink:href="../source_image.jpeg"
       id="image1"
       x="11890.713"
       y="-2446.3958"
       transform="rotate(-0.30790777)"
       style="display:none" /></g><g
     id="layer17"
     transform="translate(-13130)"><path
       id="path20-59-8-6"
       style="display:inline;opacity:1;fill:#000000;fill-opacity:1"
       d="m 13308.068,104.55078 c -2.918,0 -4.951,2.3829 -4.951,5.08789 0,2.20499 2.169,4.89951 4.951,4.91211 52.5,0.23742 78.666,62.82225 78.889,101.5 l 3.773,654.75781 c 0.24,41.72613 -25.192,85.01005 -76.662,91.19141 -2.783,0.013 -4.951,2.70711 -4.951,4.91211 0,2.705 2.033,5.08789 4.951,5.08789 h 360.095 c 247.88,0 282.927,-161.1817 282.927,-225 0,-45.91824 -2.835,-200.83471 -242.221,-264.97808 -2.295,-0.61493 -4.219,-1.92163 -4.219,-4.09809 0,-2.17646 1.511,-2.95938 4.734,-4.27756 57.468,-23.50369 171.596,-58.3815 171.596,-191.68533 0,-91.95002 -54.108,-177.41016 -203.162,-177.41016 z m 302.565,49.45703 c 59.908,0 164.439,22.85095 164.439,138.48828 0,28.39158 -13.902,165.33008 -236.547,165.33008 -3.138,0 -22.405,-2.04197 -38.828,-2.74805 0.337,-142.1552 1.961,-224.88621 1.961,-263.32812 0,-27.02332 38.795,-37.74219 108.975,-37.74219 z m 3.537,357.2461 c 77.516,0 224.836,72.04098 224.836,206.08789 0,98.72815 -46.648,200.42578 -202.125,200.42578 -36.539,0 -87.486,13.48904 -123.024,-22.04883 -17.401,-17.40081 -14.134,-202.55191 -14.218,-384.46484 z" /></g></svg>
