<?xml version="1.0" encoding="UTF-8" standalone="no"?>
<!-- Created with Inkscape (http://www.inkscape.org/) -->

<svg
   height="1000"
   width="1000"
   version="1.1"
   id="svg1"
   xml:space="preserve"
   xmlns:xlink="http://www.w3.org/1999/xlink"
   xmlns="http://www.w3.org/2000/svg"
   xmlns:svg="http://www.w3.org/2000/svg"
   xmlns:rdf="http://www.w3.org/1999/02/22-rdf-syntax-ns#"
   xmlns:cc="http://creativecommons.org/ns#"
   xmlns:dc="http://purl.org/dc/elements/1.1/"><title
     id="title2">Prospero Font SVG Source</title><defs
     id="defs4" /><metadata
     id="metadata7"><rdf:RDF><cc:Work
         rdf:about=""><dc:format>image/svg+xml</dc:format><dc:type
           rdf:resource="http://purl.org/dc/dcmitype/StillImage" /><dc:title>Prospero Font SVG Source</dc:title><dc:date>July 18, 2026</dc:date><dc:creator><cc:Agent><dc:title>Dave Jeffery</dc:title></cc:Agent></dc:creator><dc:contributor><cc:Agent><dc:title>Font originally designed by Alan Jeapes of the British Broadcasting Corporation.</dc:title></cc:Agent></dc:contributor><cc:license
           rdf:resource="http://scripts.sil.org/OFL" /><dc:rights><cc:Agent><dc:title>released under Open Font Licence</dc:title></cc:Agent></dc:rights><dc:publisher><cc:Agent><dc:title>Dave Jeffery</dc:title></cc:Agent></dc:publisher><dc:language>British English</dc:language><dc:subject><rdf:Bag><rdf:li>COW</rdf:li><rdf:li>Jeapes</rdf:li><rdf:li>BBC</rdf:li><rdf:li>BBC ONE</rdf:li><rdf:li>BBC1</rdf:li><rdf:li>GEM</rdf:li><rdf:li>1985</rdf:li></rdf:Bag></dc:subject><dc:source>Scan obtained by Mark Boulton from Alan Jeapes's son.</dc:source></cc:Work><cc:License
         rdf:about="http://scripts.sil.org/OFL"><cc:permits
           rdf:resource="http://scripts.sil.org/pub/OFL/Reproduction" /><cc:permits
           rdf:resource="http://scripts.sil.org/pub/OFL/Distribution" /><cc:permits
           rdf:resource="http://scripts.sil.org/pub/OFL/Embedding" /><cc:permits
           rdf:resource="http://scripts.sil.org/pub/OFL/DerivativeWorks" /><cc:requires
           rdf:resource="http://scripts.sil.org/pub/OFL/Notice" /><cc:requires
           rdf:resource="http://scripts.sil.org/pub/OFL/Attribution" /><cc:requires
           rdf:resource="http://scripts.sil.org/pub/OFL/ShareAlike" /><cc:requires
           rdf:resource="http://scripts.sil.org/pub/OFL/DerivativeRenaming" /><cc:requires
           rdf:resource="http://scripts.sil.org/pub/OFL/BundlingWhenSelling" /></cc:License></rdf:RDF></metadata><g
     id="layer1"
     style="display:none"
     transform="translate(-11174.828,-187.73312)"><image
       width="12064.083"
       height="9048.0625"
       preserveAspectRatio="none"
       xlink:href="../source_image.jpeg"
       id="image1"
       x="8220.7559"
       y="-2474.1077"
       transform="rotate(-0.30790777)"
       style="display:none" /></g><g
     id="layer14"
     transform="translate(-11110)"><path
       id="path20-59-8-1"
       style="display:inline;opacity:1;fill:#000000;fill-opacity:1"
       d="m 11196.068,104.55078 c -2.918,0 -4.951,2.3829 -4.951,5.08789 0,2.20499 2.169,4.89951 4.951,4.91211 52.5,0.23742 78.666,62.82225 78.889,101.5 l 3.773,654.75781 c 0.24,41.72613 -25.192,85.01005 -76.662,91.19141 -2.783,0.013 -4.951,2.70711 -4.951,4.91211 0,2.705 2.033,5.08789 4.951,5.08789 h 286.998 c 290.995,0 559.954,-80.74313 559.954,-438.79102 0,-341.02346 -276.175,-428.6582 -443.202,-428.6582 z m 264.096,53.3457 c 221.504,0 464.082,60.73701 464.082,375.3125 0,213.79102 -108.525,382.02344 -435.18,382.02344 -42.73,0 -80.413,-11.71793 -87.709,-19.01367 -4.439,-4.43863 -9.621,-8.77207 -9.621,-60.22266 V 193.75 c 0,-27.02332 32.248,-35.85352 68.428,-35.85352 z" /></g></svg>
