<?xml version="1.0" encoding="UTF-8" standalone="no"?>
<!-- Created with Inkscape (http://www.inkscape.org/) -->

<svg
   height="1000"
   width="1000"
   version="1.1"
   id="svg1"
   xml:space="preserve"
   xmlns:xlink="http://www.w3.org/1999/xlink"
   xmlns="http://www.w3.org/2000/svg"
   xmlns:svg="http://www.w3.org/2000/svg"
   xmlns:rdf="http://www.w3.org/1999/02/22-rdf-syntax-ns#"
   xmlns:cc="http://creativecommons.org/ns#"
   xmlns:dc="http://purl.org/dc/elements/1.1/"><title
     id="title2">Prospero Font SVG Source</title><defs
     id="defs4" /><metadata
     id="metadata7"><rdf:RDF><cc:Work
         rdf:about=""><dc:format>image/svg+xml</dc:format><dc:type
           rdf:resource="http://purl.org/dc/dcmitype/StillImage" /><dc:title>Prospero Font SVG Source</dc:title><dc:date>July 18, 2026</dc:date><dc:creator><cc:Agent><dc:title>Dave Jeffery</dc:title></cc:Agent></dc:creator><dc:contributor><cc:Agent><dc:title>Font originally designed by Alan Jeapes of the British Broadcasting Corporation.</dc:title></cc:Agent></dc:contributor><cc:license
           rdf:resource="http://scripts.sil.org/OFL" /><dc:rights><cc:Agent><dc:title>released under Open Font Licence</dc:title></cc:Agent></dc:rights><dc:publisher><cc:Agent><dc:title>Dave Jeffery</dc:title></cc:Agent></dc:publisher><dc:language>British English</dc:language><dc:subject><rdf:Bag><rdf:li>COW</rdf:li><rdf:li>Jeapes</rdf:li><rdf:li>BBC</rdf:li><rdf:li>BBC ONE</rdf:li><rdf:li>BBC1</rdf:li><rdf:li>GEM</rdf:li><rdf:li>1985</rdf:li></rdf:Bag></dc:subject><dc:source>Scan obtained by Mark Boulton from Alan Jeapes's son.</dc:source></cc:Work><cc:License
         rdf:about="http://scripts.sil.org/OFL"><cc:permits
           rdf:resource="http://scripts.sil.org/pub/OFL/Reproduction" /><cc:permits
           rdf:resource="http://scripts.sil.org/pub/OFL/Distribution" /><cc:permits
           rdf:resource="http://scripts.sil.org/pub/OFL/Embedding" /><cc:permits
           rdf:resource="http://scripts.sil.org/pub/OFL/DerivativeWorks" /><cc:requires
           rdf:resource="http://scripts.sil.org/pub/OFL/Notice" /><cc:requires
           rdf:resource="http://scripts.sil.org/pub/OFL/Attribution" /><cc:requires
           rdf:resource="http://scripts.sil.org/pub/OFL/ShareAlike" /><cc:requires
           rdf:resource="http://scripts.sil.org/pub/OFL/DerivativeRenaming" /><cc:requires
           rdf:resource="http://scripts.sil.org/pub/OFL/BundlingWhenSelling" /></cc:License></rdf:RDF></metadata><g
     id="layer1"
     style="display:none"
     transform="translate(-8144.8284,-187.73312)"><image
       width="12064.083"
       height="9048.0625"
       preserveAspectRatio="none"
       xlink:href="../source_image.jpeg"
       id="image1"
       x="3102.9429"
       y="-2515.5969"
       transform="rotate(-0.30790777)"
       style="display:none" /></g><g
     id="layer10"
     transform="translate(-8080)"><path
       id="path20-5-02"
       style="display:inline;opacity:1;fill:#000000;fill-opacity:1"
       d="M 8635.8945,92.984375 C 8316.4368,92.984375 8163.5,304.68721 8163.5,536.25 c 0,101.82338 55.5068,447.86538 433.6816,447.86538 201.7954,0 357.9082,-106.34158 357.9082,-127.36538 v -169.5 c 0,-52.51294 42.8856,-94.25 65.3887,-94.25 1.5029,0 4,-1.42688 4,-4 0,-2.63562 -1.9259,-4 -4,-4 H 8781 c -2.0741,0 -4,1.36438 -4,4 0,2.57312 2.497,4 4,4 10.2529,0 59.3887,39.23706 59.3887,74.25 v 199.5 c 0,0 -80.9812,48.24609 -198.836,48.24609 C 8451.4449,914.99609 8285.5,747 8285.5,525.25 c 0,-95.13149 47.4016,-383.75 349,-383.75 224.3998,0 309.25,171.75 309.25,171.75 L 8922.5,143.5 c -2.2168,2.21677 -7.5965,0.90662 -12.8574,0.79102 -5.2609,-0.11559 -10.4029,-1.03662 -12.1426,-2.04102 -3.5543,-2.05206 -73.994,-49.265625 -261.6055,-49.265625 z" /></g></svg>
