<?xml version="1.0" encoding="UTF-8" standalone="no"?>
<!-- Created with Inkscape (http://www.inkscape.org/) -->

<svg
   height="1000"
   width="1000"
   version="1.1"
   id="svg1"
   xml:space="preserve"
   xmlns:xlink="http://www.w3.org/1999/xlink"
   xmlns="http://www.w3.org/2000/svg"
   xmlns:svg="http://www.w3.org/2000/svg"
   xmlns:rdf="http://www.w3.org/1999/02/22-rdf-syntax-ns#"
   xmlns:cc="http://creativecommons.org/ns#"
   xmlns:dc="http://purl.org/dc/elements/1.1/"><title
     id="title2">Prospero Font SVG Source</title><defs
     id="defs4" /><metadata
     id="metadata7"><rdf:RDF><cc:Work
         rdf:about=""><dc:format>image/svg+xml</dc:format><dc:type
           rdf:resource="http://purl.org/dc/dcmitype/StillImage" /><dc:title>Prospero Font SVG Source</dc:title><dc:date>July 18, 2026</dc:date><dc:creator><cc:Agent><dc:title>Dave Jeffery</dc:title></cc:Agent></dc:creator><dc:contributor><cc:Agent><dc:title>Font originally designed by Alan Jeapes of the British Broadcasting Corporation.</dc:title></cc:Agent></dc:contributor><cc:license
           rdf:resource="http://scripts.sil.org/OFL" /><dc:rights><cc:Agent><dc:title>released under Open Font Licence</dc:title></cc:Agent></dc:rights><dc:publisher><cc:Agent><dc:title>Dave Jeffery</dc:title></cc:Agent></dc:publisher><dc:language>British English</dc:language><dc:subject><rdf:Bag><rdf:li>COW</rdf:li><rdf:li>Jeapes</rdf:li><rdf:li>BBC</rdf:li><rdf:li>BBC ONE</rdf:li><rdf:li>BBC1</rdf:li><rdf:li>GEM</rdf:li><rdf:li>1985</rdf:li></rdf:Bag></dc:subject><dc:source>Scan obtained by Mark Boulton from Alan Jeapes's son.</dc:source></cc:Work><cc:License
         rdf:about="http://scripts.sil.org/OFL"><cc:permits
           rdf:resource="http://scripts.sil.org/pub/OFL/Reproduction" /><cc:permits
           rdf:resource="http://scripts.sil.org/pub/OFL/Distribution" /><cc:permits
           rdf:resource="http://scripts.sil.org/pub/OFL/Embedding" /><cc:permits
           rdf:resource="http://scripts.sil.org/pub/OFL/DerivativeWorks" /><cc:requires
           rdf:resource="http://scripts.sil.org/pub/OFL/Notice" /><cc:requires
           rdf:resource="http://scripts.sil.org/pub/OFL/Attribution" /><cc:requires
           rdf:resource="http://scripts.sil.org/pub/OFL/ShareAlike" /><cc:requires
           rdf:resource="http://scripts.sil.org/pub/OFL/DerivativeRenaming" /><cc:requires
           rdf:resource="http://scripts.sil.org/pub/OFL/BundlingWhenSelling" /></cc:License></rdf:RDF></metadata><g
     id="layer1"
     style="display:none"
     transform="translate(-48518.828,-187.73312)"><image
       width="12143.697"
       height="9107.7715"
       preserveAspectRatio="none"
       xlink:href="../source_image.jpeg"
       id="image1"
       x="37546.199"
       y="-4879.5269"
       transform="rotate(-0.42706528)"
       style="display:none" /></g><g
     id="layer49"
     transform="translate(-48480)"><path
       id="rect83"
       style="opacity:1;fill:#000000;fill-opacity:1"
       d="m 49038.74,103.29297 c -92.101,0 -248.724,25.04656 -248.724,302.23242 0,39.47445 -0.06,73.08501 -0.161,101.97461 h -68.355 v 63 h 68.01 c -1.003,128.09639 -3.253,126.34195 -4.446,226.05664 -0.584,48.82168 -22.599,121.45626 -81.494,121.71094 l 0.241,55.5 c 0,0 78.75,-4.875 137.25,-4.875 58.5,0 211.29,19.28906 307.103,19.28906 40.313,0 67.176,-14.41406 67.176,-14.41406 l 46.851,-136.05274 c 0,0 -57.811,80.55274 -159.634,80.55274 -56.922,0 -120.354,-10.3418 -236.705,-10.3418 25.456,-26.16295 40.209,-96.1582 40.209,-299.1582 0,-12.59219 -0.192,-25.37183 -0.506,-38.26758 H 49076 v -63 h -172.633 C 48902.705,332.27045 48886.993,154 49046,154 c 140.973,0 203.988,141.57031 203.988,141.57031 l -10.927,-130.55273 c -90.156,-53.01777 -108.221,-61.72461 -200.321,-61.72461 z" /></g></svg>
