<?xml version="1.0" encoding="UTF-8" standalone="no"?>
<!-- Created with Inkscape (http://www.inkscape.org/) -->

<svg
   height="1000"
   width="1000"
   version="1.1"
   id="svg1"
   xml:space="preserve"
   xmlns:xlink="http://www.w3.org/1999/xlink"
   xmlns="http://www.w3.org/2000/svg"
   xmlns:svg="http://www.w3.org/2000/svg"
   xmlns:rdf="http://www.w3.org/1999/02/22-rdf-syntax-ns#"
   xmlns:cc="http://creativecommons.org/ns#"
   xmlns:dc="http://purl.org/dc/elements/1.1/"><title
     id="title2">Prospero Font SVG Source</title><defs
     id="defs4" /><metadata
     id="metadata7"><rdf:RDF><cc:Work
         rdf:about=""><dc:format>image/svg+xml</dc:format><dc:type
           rdf:resource="http://purl.org/dc/dcmitype/StillImage" /><dc:title>Prospero Font SVG Source</dc:title><dc:date>July 18, 2026</dc:date><dc:creator><cc:Agent><dc:title>Dave Jeffery</dc:title></cc:Agent></dc:creator><dc:contributor><cc:Agent><dc:title>Font originally designed by Alan Jeapes of the British Broadcasting Corporation.</dc:title></cc:Agent></dc:contributor><cc:license
           rdf:resource="http://scripts.sil.org/OFL" /><dc:rights><cc:Agent><dc:title>released under Open Font Licence</dc:title></cc:Agent></dc:rights><dc:publisher><cc:Agent><dc:title>Dave Jeffery</dc:title></cc:Agent></dc:publisher><dc:language>British English</dc:language><dc:subject><rdf:Bag><rdf:li>COW</rdf:li><rdf:li>Jeapes</rdf:li><rdf:li>BBC</rdf:li><rdf:li>BBC ONE</rdf:li><rdf:li>BBC1</rdf:li><rdf:li>GEM</rdf:li><rdf:li>1985</rdf:li></rdf:Bag></dc:subject><dc:source>Scan obtained by Mark Boulton from Alan Jeapes's son.</dc:source></cc:Work><cc:License
         rdf:about="http://scripts.sil.org/OFL"><cc:permits
           rdf:resource="http://scripts.sil.org/pub/OFL/Reproduction" /><cc:permits
           rdf:resource="http://scripts.sil.org/pub/OFL/Distribution" /><cc:permits
           rdf:resource="http://scripts.sil.org/pub/OFL/Embedding" /><cc:permits
           rdf:resource="http://scripts.sil.org/pub/OFL/DerivativeWorks" /><cc:requires
           rdf:resource="http://scripts.sil.org/pub/OFL/Notice" /><cc:requires
           rdf:resource="http://scripts.sil.org/pub/OFL/Attribution" /><cc:requires
           rdf:resource="http://scripts.sil.org/pub/OFL/ShareAlike" /><cc:requires
           rdf:resource="http://scripts.sil.org/pub/OFL/DerivativeRenaming" /><cc:requires
           rdf:resource="http://scripts.sil.org/pub/OFL/BundlingWhenSelling" /></cc:License></rdf:RDF></metadata><g
     id="layer1"
     style="display:none"
     transform="translate(-21274.828,-187.73312)"><image
       width="12319.771"
       height="9239.8281"
       preserveAspectRatio="none"
       xlink:href="../source_image.jpeg"
       id="image1"
       x="15926.333"
       y="-3835.9165"
       transform="rotate(-0.30790777)"
       style="display:inline" /></g><g
     id="layer25"
     transform="translate(-21210)"><path
       id="path20-5-69"
       style="display:inline;opacity:1;fill:#000000;fill-opacity:1"
       d="m 21290.262,104 c -2.074,0 -4,1.36438 -4,4 0,2.57312 2.497,4 4,4 10.253,0 59.386,39.23706 59.386,74.25 V 706.5 c 0,124.54466 51.601,280.79688 307.795,280.79688 173.678,-10e-6 274.272,-87.69644 289.401,-101.875 V 972 h 176.894 c 2.074,0 4,-1.36438 4,-4 0,-2.57312 -2.497,-4 -4,-4 -10.253,0 -61.388,-26.74313 -61.388,-74.25 v -683.5 c 0,-52.51294 42.885,-94.25 65.388,-94.25 1.503,0 4,-1.42688 4,-4 0,-2.63562 -1.926,-4 -4,-4 h -239.476 c -2.074,0 -4,1.36438 -4,4 0,2.57312 2.497,4 4,4 10.253,0 59.386,39.23706 59.386,74.25 V 786.28125 C 21936.957,817.06424 21880.667,918.25 21714,918.25 c -142.09,0 -249.65,-57.59221 -249.65,-259.75 V 206.25 c 0,-52.51294 42.885,-94.25 65.388,-94.25 1.503,0 4,-1.42688 4,-4 0,-2.63562 -1.926,-4 -4,-4 z" /></g></svg>
