<?xml version="1.0" encoding="UTF-8" standalone="no"?>
<!-- Created with Inkscape (http://www.inkscape.org/) -->

<svg
   height="1000"
   width="1000"
   version="1.1"
   id="svg1"
   xml:space="preserve"
   xmlns:xlink="http://www.w3.org/1999/xlink"
   xmlns="http://www.w3.org/2000/svg"
   xmlns:svg="http://www.w3.org/2000/svg"
   xmlns:rdf="http://www.w3.org/1999/02/22-rdf-syntax-ns#"
   xmlns:cc="http://creativecommons.org/ns#"
   xmlns:dc="http://purl.org/dc/elements/1.1/"><title
     id="title2">Prospero Font SVG Source</title><defs
     id="defs4" /><metadata
     id="metadata7"><rdf:RDF><cc:Work
         rdf:about=""><dc:format>image/svg+xml</dc:format><dc:type
           rdf:resource="http://purl.org/dc/dcmitype/StillImage" /><dc:title>Prospero Font SVG Source</dc:title><dc:date>July 18, 2026</dc:date><dc:creator><cc:Agent><dc:title>Dave Jeffery</dc:title></cc:Agent></dc:creator><dc:contributor><cc:Agent><dc:title>Font originally designed by Alan Jeapes of the British Broadcasting Corporation.</dc:title></cc:Agent></dc:contributor><cc:license
           rdf:resource="http://scripts.sil.org/OFL" /><dc:rights><cc:Agent><dc:title>released under Open Font Licence</dc:title></cc:Agent></dc:rights><dc:publisher><cc:Agent><dc:title>Dave Jeffery</dc:title></cc:Agent></dc:publisher><dc:language>British English</dc:language><dc:subject><rdf:Bag><rdf:li>COW</rdf:li><rdf:li>Jeapes</rdf:li><rdf:li>BBC</rdf:li><rdf:li>BBC ONE</rdf:li><rdf:li>BBC1</rdf:li><rdf:li>GEM</rdf:li><rdf:li>1985</rdf:li></rdf:Bag></dc:subject><dc:source>Scan obtained by Mark Boulton from Alan Jeapes's son.</dc:source></cc:Work><cc:License
         rdf:about="http://scripts.sil.org/OFL"><cc:permits
           rdf:resource="http://scripts.sil.org/pub/OFL/Reproduction" /><cc:permits
           rdf:resource="http://scripts.sil.org/pub/OFL/Distribution" /><cc:permits
           rdf:resource="http://scripts.sil.org/pub/OFL/Embedding" /><cc:permits
           rdf:resource="http://scripts.sil.org/pub/OFL/DerivativeWorks" /><cc:requires
           rdf:resource="http://scripts.sil.org/pub/OFL/Notice" /><cc:requires
           rdf:resource="http://scripts.sil.org/pub/OFL/Attribution" /><cc:requires
           rdf:resource="http://scripts.sil.org/pub/OFL/ShareAlike" /><cc:requires
           rdf:resource="http://scripts.sil.org/pub/OFL/DerivativeRenaming" /><cc:requires
           rdf:resource="http://scripts.sil.org/pub/OFL/BundlingWhenSelling" /></cc:License></rdf:RDF></metadata><g
     id="layer1"
     style="display:none"
     transform="translate(-23294.828,-187.73312)"><image
       width="12319.771"
       height="9239.8281"
       preserveAspectRatio="none"
       xlink:href="../source_image.jpeg"
       id="image1"
       x="16008.333"
       y="-3835.4761"
       transform="rotate(-0.30790777)"
       style="display:none" /></g><g
     id="layer27"
     transform="translate(-23230)"><path
       id="path52"
       style="display:inline;opacity:1;fill:#000000;fill-opacity:1"
       d="m 23124.262,104 c -2.074,0 -4,1.36438 -4,4 0,2.57312 2.497,4 4,4 2.686,0 76.053,0.71159 111.566,116.625 l 237.611,775.5449 236.346,-667.42185 207.735,679.46485 283.816,-801.47178 C 24220.863,159.59824 24291.235,112 24313.738,112 c 1.503,0 4,-1.42688 4,-4 0,-2.63562 -1.926,-4 -4,-4 h -189.476 c -2.074,0 -4,1.36438 -4,4 0,2.57312 2.497,4 4,4 27.819,0 37.204,49.82924 28.368,74.78106 L 23954.246,747 23787.662,202.24219 c -2.109,-6.89606 -7.108,-29.46803 -7.108,-44.8698 0,-28.85278 36.331,-45.37239 47.583,-45.37239 1.503,0 4,-1.42688 4,-4 0,-2.63562 -1.926,-4 -4,-4 h -245.477 c -2.074,0 -4,1.36438 -4,4 0,2.57312 2.497,4 4,4 45.608,0 64.087,30.92827 84.11,74.25 19.445,42.07285 18.891,71.58806 14.23,84.75 l -168.561,476 c -53.604,-182.00672 -113.042,-362.31977 -165.175,-544.75781 -3.959,-13.8538 -9.465,-29.53697 -9.465,-49.375 0,-19.18709 24.687,-40.86719 35.939,-40.86719 1.503,0 4,-1.42688 4,-4 0,-2.63562 -1.926,-4 -4,-4 z" /></g></svg>
