<?xml version="1.0" encoding="UTF-8" standalone="no"?>
<!-- Created with Inkscape (http://www.inkscape.org/) -->

<svg
   height="1000"
   width="1000"
   version="1.1"
   id="svg1"
   xml:space="preserve"
   sodipodi:docname="X.svg"
   inkscape:version="1.4.4 (dcaf3e7d9e, 2026-05-05)"
   xmlns:inkscape="http://www.inkscape.org/namespaces/inkscape"
   xmlns:sodipodi="http://sodipodi.sourceforge.net/DTD/sodipodi-0.dtd"
   xmlns="http://www.w3.org/2000/svg"
   xmlns:svg="http://www.w3.org/2000/svg"
   xmlns:rdf="http://www.w3.org/1999/02/22-rdf-syntax-ns#"
   xmlns:cc="http://creativecommons.org/ns#"
   xmlns:dc="http://purl.org/dc/elements/1.1/"><sodipodi:namedview
     id="namedview1"
     pagecolor="#ffffff"
     bordercolor="#000000"
     borderopacity="0.25"
     inkscape:showpageshadow="2"
     inkscape:pageopacity="0.0"
     inkscape:pagecheckerboard="0"
     inkscape:deskcolor="#d1d1d1"
     inkscape:zoom="0.28319627"
     inkscape:cx="10.59336"
     inkscape:cy="594.99372"
     inkscape:window-width="1920"
     inkscape:window-height="1052"
     inkscape:window-x="0"
     inkscape:window-y="0"
     inkscape:window-maximized="1"
     inkscape:current-layer="svg1" /><title
     id="title2">Prospero Font SVG Source</title><defs
     id="defs4" /><metadata
     id="metadata7"><rdf:RDF><cc:Work
         rdf:about=""><dc:format>image/svg+xml</dc:format><dc:type
           rdf:resource="http://purl.org/dc/dcmitype/StillImage" /><dc:title>Prospero Font SVG Source</dc:title><dc:date>July 18, 2026</dc:date><dc:creator><cc:Agent><dc:title>Dave Jeffery</dc:title></cc:Agent></dc:creator><dc:contributor><cc:Agent><dc:title>Font originally designed by Alan Jeapes of the British Broadcasting Corporation.</dc:title></cc:Agent></dc:contributor><cc:license
           rdf:resource="http://scripts.sil.org/OFL" /><dc:rights><cc:Agent><dc:title>released under Open Font Licence</dc:title></cc:Agent></dc:rights><dc:publisher><cc:Agent><dc:title>Dave Jeffery</dc:title></cc:Agent></dc:publisher><dc:language>British English</dc:language><dc:subject><rdf:Bag><rdf:li>COW</rdf:li><rdf:li>Jeapes</rdf:li><rdf:li>BBC</rdf:li><rdf:li>BBC ONE</rdf:li><rdf:li>BBC1</rdf:li><rdf:li>GEM</rdf:li><rdf:li>1985</rdf:li></rdf:Bag></dc:subject><dc:source>Scan obtained by Mark Boulton from Alan Jeapes's son.</dc:source></cc:Work><cc:License
         rdf:about="http://scripts.sil.org/OFL"><cc:permits
           rdf:resource="http://scripts.sil.org/pub/OFL/Reproduction" /><cc:permits
           rdf:resource="http://scripts.sil.org/pub/OFL/Distribution" /><cc:permits
           rdf:resource="http://scripts.sil.org/pub/OFL/Embedding" /><cc:permits
           rdf:resource="http://scripts.sil.org/pub/OFL/DerivativeWorks" /><cc:requires
           rdf:resource="http://scripts.sil.org/pub/OFL/Notice" /><cc:requires
           rdf:resource="http://scripts.sil.org/pub/OFL/Attribution" /><cc:requires
           rdf:resource="http://scripts.sil.org/pub/OFL/ShareAlike" /><cc:requires
           rdf:resource="http://scripts.sil.org/pub/OFL/DerivativeRenaming" /><cc:requires
           rdf:resource="http://scripts.sil.org/pub/OFL/BundlingWhenSelling" /></cc:License></rdf:RDF></metadata><g
     id="layer3"
     transform="translate(-24240)"><path
       id="path49-5"
       style="display:inline;opacity:1;fill:#000000;fill-opacity:1"
       d="m 24356.168,104 c -2.074,0 -4,1.36438 -4,4 0,2.57312 2.497,4 4,4 10.253,0 69.787,30 98.107,74.25 l 229.805,355.0918 -231.635,343.41601 C 24419.733,933.25503 24356.716,964 24334.213,964 c -1.503,0 -4,1.42688 -4,4 0,2.63562 1.926,4 4,4 h 185.475 c 2.074,0 4,-1.36438 4,-4 0,-2.57312 -2.497,-4 -4,-4 -27.819,0 -38.135,-26.97532 -23.333,-48.91992 l 219.297,-325.11914 184.299,283.79687 c 7.847,12.08377 35.221,54.23241 35.221,67.75196 0,19.18709 -20.186,22.49023 -31.438,22.49023 -1.503,0 -4,1.42688 -4,4 0,2.63562 1.926,4 4,4 h 241.477 c 2.074,0 4,-1.36438 4,-4 0,-2.57312 -2.497,-4 -4,-4 -10.253,0 -75.214,-38.49785 -101.207,-78.52344 l -239.215,-368.35937 224.315,-332.5625 C 25061.816,136.05743 25131.235,112 25153.738,112 c 1.503,0 4,-1.42688 4,-4 0,-2.63562 -1.926,-4 -4,-4 h -185.476 c -2.074,0 -4,1.36438 -4,4 0,2.57312 2.497,4 4,4 27.819,0 19.161,45.14317 4.359,67.08789 l -197.348,292.57813 -176.218,-271.35352 c -7.847,-12.0837 -27.938,-46.6062 -27.938,-58.3125 0,-19.71742 23.274,-30 34.526,-30 1.503,0 4,-1.42688 4,-4 0,-2.63562 -1.926,-4 -4,-4 z" /></g></svg>
