<?xml version="1.0" encoding="UTF-8" standalone="no"?>
<!-- Created with Inkscape (http://www.inkscape.org/) -->

<svg
   height="1000"
   width="1000"
   sodipodi:docname="Prospero.svg"
   version="1.1"
   id="svg1"
   inkscape:version="1.4.4 (dcaf3e7d9e, 2026-05-05)"
   xml:space="preserve"
   inkscape:export-batch-name=""
   inkscape:export-batch-path="export"
   inkscape:export-filename="export/Prospero.svg"
   inkscape:export-xdpi="96"
   inkscape:export-ydpi="96"
   xmlns:inkscape="http://www.inkscape.org/namespaces/inkscape"
   xmlns:sodipodi="http://sodipodi.sourceforge.net/DTD/sodipodi-0.dtd"
   xmlns:xlink="http://www.w3.org/1999/xlink"
   xmlns="http://www.w3.org/2000/svg"
   xmlns:svg="http://www.w3.org/2000/svg"
   xmlns:rdf="http://www.w3.org/1999/02/22-rdf-syntax-ns#"
   xmlns:cc="http://creativecommons.org/ns#"
   xmlns:dc="http://purl.org/dc/elements/1.1/"><title
     id="title2">Prospero Font SVG Source</title><sodipodi:namedview
     id="base"
     pagecolor="#ffffff"
     bordercolor="#000000"
     borderopacity="0.3"
     inkscape:pageopacity="0.0"
     inkscape:pageshadow="2"
     inkscape:zoom="0.125"
     inkscape:cx="40760"
     inkscape:cy="460"
     inkscape:document-units="px"
     inkscape:current-layer="layer1"
     showgrid="false"
     showguides="true"
     showborder="true"
     inkscape:showpageshadow="false"
     inkscape:pagecheckerboard="0"
     inkscape:deskcolor="#d1d1d1"
     inkscape:window-width="1920"
     inkscape:window-height="1052"
     inkscape:window-x="0"
     inkscape:window-y="0"
     inkscape:window-maximized="1"><sodipodi:guide
       id="guide_baseline"
       inkscape:label="baseline"
       position="0,253"
       orientation="0,1"
       inkscape:locked="false" /><sodipodi:guide
       id="guide_caps"
       inkscape:label="caps"
       position="0,896"
       orientation="0,1"
       inkscape:locked="false" /><sodipodi:guide
       id="guide_xheight"
       inkscape:label="xheight"
       position="0,729"
       orientation="0,1"
       inkscape:locked="false" /><sodipodi:guide
       id="guide_descender"
       inkscape:label="descender"
       position="0,28"
       orientation="0,1"
       inkscape:locked="false" /><inkscape:page
       x="0"
       y="0"
       width="1000"
       height="1000"
       id="page2"
       margin="0"
       bleed="0"
       inkscape:label="Space" /><inkscape:page
       x="1010"
       y="0"
       width="1000"
       height="1000"
       id="page13"
       margin="0"
       bleed="0"
       inkscape:label="N" /><inkscape:page
       x="2020"
       y="0"
       width="1000"
       height="1000"
       id="page3"
       margin="0"
       bleed="0"
       inkscape:label="M" /><sodipodi:guide
       position="1236.0227,888"
       orientation="0.76604444,0.64278761"
       id="guide3"
       inkscape:locked="false"
       inkscape:label=""
       inkscape:color="rgb(246,97,81)" /><sodipodi:guide
       position="1088.7945,888"
       orientation="0,1"
       id="guide11"
       inkscape:locked="false"
       inkscape:label=""
       inkscape:color="rgb(220,138,221)" /><sodipodi:guide
       position="1978,68.74313"
       orientation="0,-1"
       id="guide12"
       inkscape:locked="false" /><sodipodi:guide
       position="1992.9225,38"
       orientation="0,1"
       id="guide13"
       inkscape:locked="false"
       inkscape:label=""
       inkscape:color="rgb(220,138,221)" /><sodipodi:guide
       position="1146.2698,537.51902"
       orientation="-1,0"
       id="guide14"
       inkscape:locked="false"
       inkscape:label=""
       inkscape:color="rgb(246,97,81)" /><sodipodi:guide
       position="1195.4219,253"
       orientation="-1,0"
       id="guide15"
       inkscape:locked="false"
       inkscape:label=""
       inkscape:color="rgb(246,97,81)" /><sodipodi:guide
       position="1340.6745,592.70649"
       orientation="0.76604444,0.64278761"
       id="guide16"
       inkscape:locked="false"
       inkscape:label=""
       inkscape:color="rgb(0,134,229)" /><sodipodi:guide
       position="1824.5509,193.27955"
       orientation="-1,0"
       id="guide17"
       inkscape:locked="false"
       inkscape:label=""
       inkscape:color="rgb(246,97,81)" /><sodipodi:guide
       position="1867.469,230.66782"
       orientation="1,0"
       id="guide18"
       inkscape:locked="false" /><inkscape:page
       x="3030"
       y="0"
       width="1000"
       height="1000"
       id="page18"
       margin="0"
       bleed="0"
       inkscape:label="L" /><sodipodi:guide
       position="3321.6396,542.28094"
       orientation="1,0"
       id="guide19"
       inkscape:locked="false" /><sodipodi:guide
       position="3436.3401,527.48694"
       orientation="1,0"
       id="guide20"
       inkscape:locked="false" /><inkscape:page
       x="4040"
       y="0"
       width="1000"
       height="1000"
       id="page20"
       margin="0"
       bleed="0"
       inkscape:label="K" /><sodipodi:guide
       position="4265,458"
       orientation="-1,0"
       id="guide21"
       inkscape:locked="false"
       inkscape:label=""
       inkscape:color="rgb(246,97,81)" /><sodipodi:guide
       position="4381.7032,508.66022"
       orientation="-0.66913061,0.74314483"
       id="guide22"
       inkscape:locked="false"
       inkscape:label=""
       inkscape:color="rgb(246,97,81)" /><sodipodi:guide
       position="4442,493"
       orientation="-0.66913061,0.74314483"
       id="guide23"
       inkscape:label=""
       inkscape:locked="false"
       inkscape:color="rgb(246,97,81)" /><sodipodi:guide
       position="4476.1432,523.74267"
       orientation="0.76604444,0.64278761"
       id="guide24"
       inkscape:locked="false"
       inkscape:label=""
       inkscape:color="rgb(246,97,81)" /><sodipodi:guide
       position="4493,330"
       orientation="0.76604444,0.64278761"
       id="guide25"
       inkscape:label=""
       inkscape:locked="false"
       inkscape:color="rgb(246,97,81)" /><sodipodi:guide
       position="4378.7555,466.15126"
       orientation="-1,0"
       id="guide26"
       inkscape:label=""
       inkscape:locked="false"
       inkscape:color="rgb(246,97,81)" /><inkscape:page
       x="5050"
       y="0"
       width="1000"
       height="1000"
       id="page27"
       margin="0"
       bleed="0"
       inkscape:label="J" /><sodipodi:guide
       position="5286.3401,757.02897"
       orientation="1,0"
       id="guide28"
       inkscape:locked="false" /><inkscape:page
       x="6060"
       y="0"
       width="1000"
       height="1000"
       id="page28"
       margin="0"
       bleed="0"
       inkscape:label="I" /><inkscape:page
       x="7070"
       y="0"
       width="1000"
       height="1000"
       id="page29"
       margin="0"
       bleed="0"
       inkscape:label="H" /><inkscape:page
       x="8080"
       y="0"
       width="1000"
       height="1000"
       id="page30"
       margin="0"
       bleed="0"
       inkscape:label="G" /><inkscape:page
       x="9090"
       y="0"
       width="1000"
       height="1000"
       id="page31"
       margin="0"
       bleed="0"
       inkscape:label="F" /><inkscape:page
       x="10100"
       y="0"
       width="1000"
       height="1000"
       id="page32"
       margin="0"
       bleed="0"
       inkscape:label="E" /><inkscape:page
       x="11110"
       y="0"
       width="1000"
       height="1000"
       id="page33"
       margin="0"
       bleed="0"
       inkscape:label="D" /><inkscape:page
       x="12120"
       y="0"
       width="1000"
       height="1000"
       id="page34"
       margin="0"
       bleed="0"
       inkscape:label="C" /><inkscape:page
       x="13130"
       y="0"
       width="1000"
       height="1000"
       id="page35"
       margin="0"
       bleed="0"
       inkscape:label="B" /><inkscape:page
       x="14140"
       y="0"
       width="1000"
       height="1000"
       id="page36"
       margin="0"
       bleed="0"
       inkscape:label="A" /><sodipodi:guide
       position="14621.5,917"
       orientation="0.93969262,-0.34202014"
       id="guide36"
       inkscape:locked="false"
       inkscape:label=""
       inkscape:color="rgb(246,97,81)" /><sodipodi:guide
       position="14621.5,917"
       orientation="0.92050485,0.39073113"
       id="guide37"
       inkscape:locked="false"
       inkscape:label=""
       inkscape:color="rgb(246,97,81)" /><sodipodi:guide
       position="14663.5,393"
       orientation="0,-1"
       id="guide38"
       inkscape:locked="false" /><sodipodi:guide
       position="30699.748,314.10642"
       orientation="0,1"
       id="guide39"
       inkscape:label=""
       inkscape:locked="false"
       inkscape:color="rgb(246,97,81)" /><sodipodi:guide
       position="14408.008,179.75613"
       orientation="0.93969262,-0.34202014"
       id="guide40"
       inkscape:label=""
       inkscape:locked="false"
       inkscape:color="rgb(246,97,81)" /><sodipodi:guide
       position="14843.586,123.18759"
       orientation="0.92050485,0.39073113"
       id="guide41"
       inkscape:label=""
       inkscape:locked="false"
       inkscape:color="rgb(246,97,81)" /><inkscape:page
       x="15150"
       y="0"
       width="1000"
       height="1000"
       id="page41"
       margin="0"
       bleed="0"
       inkscape:label="O"
       inkscape:export-filename="export/O.svg"
       inkscape:export-xdpi="96"
       inkscape:export-ydpi="96" /><inkscape:page
       x="16160"
       y="0"
       width="1000"
       height="1000"
       id="page43"
       margin="0"
       bleed="0"
       inkscape:label="P"
       inkscape:export-filename="export/P.svg"
       inkscape:export-xdpi="96"
       inkscape:export-ydpi="96" /><inkscape:page
       x="17170"
       y="0"
       width="1000"
       height="1000"
       id="page44"
       margin="0"
       bleed="0"
       inkscape:label="Q"
       inkscape:export-filename="export/Q.svg"
       inkscape:export-xdpi="96"
       inkscape:export-ydpi="96" /><inkscape:page
       x="18180"
       y="0"
       width="1000"
       height="1000"
       id="page45"
       margin="0"
       bleed="0"
       inkscape:label="R"
       inkscape:export-filename="export/R.svg"
       inkscape:export-xdpi="96"
       inkscape:export-ydpi="96" /><inkscape:page
       x="19190"
       y="0"
       width="1000"
       height="1000"
       id="page46"
       margin="0"
       bleed="0"
       inkscape:label="S"
       inkscape:export-filename="export/S.svg"
       inkscape:export-xdpi="96"
       inkscape:export-ydpi="96" /><inkscape:page
       x="20200"
       y="0"
       width="1000"
       height="1000"
       id="page47"
       margin="0"
       bleed="0"
       inkscape:label="T"
       inkscape:export-filename="export/T.svg"
       inkscape:export-xdpi="96"
       inkscape:export-ydpi="96" /><inkscape:page
       x="21210"
       y="0"
       width="1000"
       height="1000"
       id="page48"
       margin="0"
       bleed="0"
       inkscape:label="U"
       inkscape:export-filename="export/U.svg"
       inkscape:export-xdpi="96"
       inkscape:export-ydpi="96" /><inkscape:page
       x="22220"
       y="0"
       width="1000"
       height="1000"
       id="page49"
       margin="0"
       bleed="0"
       inkscape:label="V"
       inkscape:export-filename="export/V.svg"
       inkscape:export-xdpi="96"
       inkscape:export-ydpi="96" /><sodipodi:guide
       position="22757.525,227.83939"
       orientation="0.92718385,0.37460659"
       id="guide49"
       inkscape:locked="false"
       inkscape:label=""
       inkscape:color="rgb(246,97,81)" /><sodipodi:guide
       position="22616,285"
       orientation="0.92718385,0.37460659"
       id="guide50"
       inkscape:label=""
       inkscape:locked="false"
       inkscape:color="rgb(246,97,81)" /><sodipodi:guide
       position="22838.135,432.19325"
       orientation="-0.93358043,0.35836795"
       id="guide51"
       inkscape:locked="false"
       inkscape:label=""
       inkscape:color="rgb(246,97,81)" /><sodipodi:guide
       position="22812.679,217.23279"
       orientation="-0.92718385,0.37460659"
       id="guide52"
       inkscape:label=""
       inkscape:locked="false"
       inkscape:color="rgb(246,97,81)" /><inkscape:page
       x="23230"
       y="0"
       width="1000"
       height="1000"
       id="page52"
       margin="0"
       bleed="0"
       inkscape:label="W"
       inkscape:export-filename="export/W.svg"
       inkscape:export-xdpi="96"
       inkscape:export-ydpi="96" /><sodipodi:guide
       position="23498.176,299.65625"
       orientation="0.95630476,0.2923717"
       id="guide1"
       inkscape:locked="false"
       inkscape:label=""
       inkscape:color="rgb(246,97,81)" /><sodipodi:guide
       position="23330,465"
       orientation="0.95630476,0.2923717"
       id="guide2"
       inkscape:label=""
       inkscape:locked="false"
       inkscape:color="rgb(246,97,81)" /><sodipodi:guide
       position="23512.44,253"
       orientation="-0.94264149,0.33380686"
       id="guide4"
       inkscape:locked="false"
       inkscape:label=""
       inkscape:color="rgb(0,134,229)" /><sodipodi:guide
       position="23624,421"
       orientation="-0.94264149,0.33380686"
       id="guide5"
       inkscape:label=""
       inkscape:locked="false"
       inkscape:color="rgb(246,97,81)" /><sodipodi:guide
       position="23778.5,438.5"
       orientation="0.95630476,0.2923717"
       id="guide6"
       inkscape:label=""
       inkscape:locked="false"
       inkscape:color="rgb(246,97,81)" /><sodipodi:guide
       position="23867.682,536.13795"
       orientation="0.95630476,0.2923717"
       id="guide7"
       inkscape:label=""
       inkscape:locked="false"
       inkscape:color="rgb(246,97,81)" /><sodipodi:guide
       position="23954.246,253"
       orientation="-0.94264149,0.33380686"
       id="guide8"
       inkscape:label=""
       inkscape:locked="false"
       inkscape:color="rgb(246,97,81)" /><sodipodi:guide
       position="24083.5,452.5"
       orientation="-0.94264149,0.33380686"
       id="guide9"
       inkscape:label=""
       inkscape:locked="false"
       inkscape:color="rgb(246,97,81)" /><inkscape:page
       x="24240"
       y="0"
       width="1000"
       height="1000"
       id="page9"
       margin="0"
       bleed="0"
       inkscape:label="X"
       inkscape:export-filename="export/X.svg"
       inkscape:export-xdpi="96"
       inkscape:export-ydpi="96" /><sodipodi:guide
       position="25100.169,28"
       orientation="0.83867057,0.54463904"
       id="guide10"
       inkscape:locked="false"
       inkscape:label=""
       inkscape:color="rgb(246,97,81)" /><sodipodi:guide
       position="24691,448"
       orientation="0.83867057,0.54463904"
       id="guide27"
       inkscape:label=""
       inkscape:locked="false"
       inkscape:color="rgb(246,97,81)" /><sodipodi:guide
       position="24802.478,568.66486"
       orientation="-0.82903757,0.5591929"
       id="guide29"
       inkscape:locked="false"
       inkscape:label=""
       inkscape:color="rgb(246,97,81)" /><sodipodi:guide
       position="24856.925,560.17958"
       orientation="-0.82903757,0.5591929"
       id="guide30"
       inkscape:label=""
       inkscape:locked="false"
       inkscape:color="rgb(246,97,81)" /><sodipodi:guide
       position="24586.103,313.39931"
       orientation="-0.82903757,0.5591929"
       id="guide31"
       inkscape:label=""
       inkscape:locked="false"
       inkscape:color="rgb(246,97,81)" /><sodipodi:guide
       position="24649.035,311.27799"
       orientation="-0.82903757,0.5591929"
       id="guide32"
       inkscape:label=""
       inkscape:locked="false"
       inkscape:color="rgb(246,97,81)" /><inkscape:page
       x="25250"
       y="0"
       width="1000"
       height="1000"
       id="page37"
       margin="0"
       bleed="0"
       inkscape:label="Y"
       inkscape:export-filename="export/Y.svg"
       inkscape:export-xdpi="96"
       inkscape:export-ydpi="96" /><sodipodi:guide
       position="25769.484,521.47266"
       orientation="0.8480481,0.52991926"
       id="guide42"
       inkscape:locked="false"
       inkscape:label=""
       inkscape:color="rgb(246,97,81)" /><sodipodi:guide
       position="25629,540"
       orientation="0.8480481,0.52991926"
       id="guide43"
       inkscape:label=""
       inkscape:locked="false"
       inkscape:color="rgb(246,97,81)" /><sodipodi:guide
       position="25861.5,602.5"
       orientation="-0.8480481,0.52991926"
       id="guide44"
       inkscape:locked="false"
       inkscape:label=""
       inkscape:color="rgb(246,97,81)" /><sodipodi:guide
       position="25870.209,519.87449"
       orientation="-0.8480481,0.52991926"
       id="guide45"
       inkscape:label=""
       inkscape:locked="false"
       inkscape:color="rgb(246,97,81)" /><inkscape:page
       x="26260"
       y="0"
       width="1000"
       height="1000"
       id="page50"
       margin="0"
       bleed="0"
       inkscape:label="Z"
       inkscape:export-filename="export/Z.svg"
       inkscape:export-xdpi="96"
       inkscape:export-ydpi="96" /><sodipodi:guide
       position="26819,697"
       orientation="0.78260816,-0.62251464"
       id="guide53"
       inkscape:locked="false"
       inkscape:label=""
       inkscape:color="rgb(246,97,81)" /><sodipodi:guide
       position="26809.247,480.98362"
       orientation="0.78260816,-0.62251464"
       id="guide54"
       inkscape:label=""
       inkscape:locked="false"
       inkscape:color="rgb(246,97,81)" /><sodipodi:guide
       position="31845.5,827.5"
       orientation="0,1"
       id="guide55"
       inkscape:locked="false"
       inkscape:label=""
       inkscape:color="rgb(246,97,81)" /><sodipodi:guide
       position="26772.5,83.5"
       orientation="0,1"
       id="guide56"
       inkscape:locked="false"
       inkscape:label=""
       inkscape:color="rgb(246,97,81)" /><inkscape:page
       x="27270"
       y="0"
       width="1000"
       height="1000"
       id="page56"
       margin="0"
       bleed="0"
       inkscape:label="1"
       inkscape:export-filename="export/1.svg"
       inkscape:export-xdpi="96"
       inkscape:export-ydpi="96" /><inkscape:page
       x="28280"
       y="0"
       width="1000"
       height="1000"
       id="page57"
       margin="0"
       bleed="0"
       inkscape:label="2"
       inkscape:export-filename="export/2.svg"
       inkscape:export-xdpi="96"
       inkscape:export-ydpi="96" /><sodipodi:guide
       position="28543.813,137.18057"
       orientation="-0.7193398,0.69465837"
       id="guide57"
       inkscape:locked="false"
       inkscape:label=""
       inkscape:color="rgb(0,134,229)" /><sodipodi:guide
       position="28975.822,472.49834"
       orientation="-0.7193398,0.69465837"
       id="guide58"
       inkscape:label=""
       inkscape:locked="false"
       inkscape:color="rgb(0,134,229)" /><inkscape:page
       x="29290"
       y="0"
       width="1000"
       height="1000"
       id="page58"
       margin="0"
       bleed="0"
       inkscape:label="3" /><sodipodi:guide
       position="29874.582,809.04297"
       orientation="0.8480481,-0.52991926"
       id="guide59"
       inkscape:locked="false"
       inkscape:label=""
       inkscape:color="rgb(246,97,81)" /><sodipodi:guide
       position="30671,556"
       orientation="-0.83867057,0.54463904"
       id="guide60"
       inkscape:label=""
       inkscape:locked="false"
       inkscape:color="rgb(246,97,81)" /><inkscape:page
       x="30300"
       y="0"
       width="1000"
       height="1000"
       id="page60"
       margin="0"
       bleed="0"
       inkscape:label="4" /><sodipodi:guide
       position="30754,539"
       orientation="-0.83867057,0.54463904"
       id="guide61"
       inkscape:label=""
       inkscape:locked="false"
       inkscape:color="rgb(246,97,81)" /><inkscape:page
       x="31310"
       y="0"
       width="1000"
       height="1000"
       id="page61"
       margin="0"
       bleed="0"
       inkscape:label="5" /><sodipodi:guide
       position="31600,629"
       orientation="0.98768834,-0.15643447"
       id="guide62"
       inkscape:locked="false"
       inkscape:label=""
       inkscape:color="rgb(246,97,81)" /><sodipodi:guide
       position="31684.041,599.77756"
       orientation="0.98768834,-0.15643447"
       id="guide63"
       inkscape:label=""
       inkscape:locked="false"
       inkscape:color="rgb(246,97,81)" /><inkscape:page
       x="32320"
       y="0"
       width="1000"
       height="1000"
       id="page63"
       margin="0"
       bleed="0"
       inkscape:label="6" /><inkscape:page
       x="33330"
       y="0"
       width="1000"
       height="1000"
       id="page65"
       margin="0"
       bleed="0"
       inkscape:label="7"
       inkscape:export-filename="export/7.svg"
       inkscape:export-xdpi="96"
       inkscape:export-ydpi="96" /><inkscape:page
       x="34340"
       y="0"
       width="1000"
       height="1000"
       id="page66"
       margin="0"
       bleed="0"
       inkscape:label="8" /><inkscape:page
       x="35350"
       y="0"
       width="1000"
       height="1000"
       id="page67"
       margin="0"
       bleed="0"
       inkscape:label="9"
       inkscape:export-filename="export/9.svg"
       inkscape:export-xdpi="96"
       inkscape:export-ydpi="96" /><inkscape:page
       x="36360"
       y="0"
       width="1000"
       height="1000"
       id="page68"
       margin="0"
       bleed="0"
       inkscape:label="0"
       inkscape:export-filename="export/0.svg"
       inkscape:export-xdpi="96"
       inkscape:export-ydpi="96" /><inkscape:page
       x="37370"
       y="0"
       width="1000"
       height="1000"
       id="page69"
       margin="0"
       bleed="0"
       inkscape:label="period"
       inkscape:export-filename="export/period.svg"
       inkscape:export-xdpi="96"
       inkscape:export-ydpi="96" /><inkscape:page
       x="38380"
       y="0"
       width="1000"
       height="1000"
       id="page70"
       margin="0"
       bleed="0"
       inkscape:label="comma" /><inkscape:page
       x="39390"
       y="0"
       width="1000"
       height="1000"
       id="page71"
       margin="0"
       bleed="0"
       inkscape:label="colon" /><inkscape:page
       x="40400"
       y="0"
       width="1000"
       height="1000"
       id="page72"
       margin="0"
       bleed="0"
       inkscape:label="semicolon"
       inkscape:export-filename="export/semicolon.svg"
       inkscape:export-xdpi="96"
       inkscape:export-ydpi="96" /></sodipodi:namedview><defs
     id="defs4" /><metadata
     id="metadata7"><rdf:RDF><cc:Work
         rdf:about=""><dc:format>image/svg+xml</dc:format><dc:type
           rdf:resource="http://purl.org/dc/dcmitype/StillImage" /><dc:title>Prospero Font SVG Source</dc:title><dc:date>July 18, 2026</dc:date><dc:creator><cc:Agent><dc:title>Dave Jeffery</dc:title></cc:Agent></dc:creator><dc:contributor><cc:Agent><dc:title>Font originally designed by Alan Jeapes of the British Broadcasting Corporation.</dc:title></cc:Agent></dc:contributor><cc:license
           rdf:resource="http://scripts.sil.org/OFL" /><dc:rights><cc:Agent><dc:title>released under Open Font Licence</dc:title></cc:Agent></dc:rights><dc:publisher><cc:Agent><dc:title>Dave Jeffery</dc:title></cc:Agent></dc:publisher><dc:language>British English</dc:language><dc:subject><rdf:Bag><rdf:li>COW</rdf:li><rdf:li>Jeapes</rdf:li><rdf:li>BBC</rdf:li><rdf:li>BBC ONE</rdf:li><rdf:li>BBC1</rdf:li><rdf:li>GEM</rdf:li><rdf:li>1985</rdf:li></rdf:Bag></dc:subject><dc:source>Scan obtained by Mark Boulton from Alan Jeapes's son.</dc:source></cc:Work><cc:License
         rdf:about="http://scripts.sil.org/OFL"><cc:permits
           rdf:resource="http://scripts.sil.org/pub/OFL/Reproduction" /><cc:permits
           rdf:resource="http://scripts.sil.org/pub/OFL/Distribution" /><cc:permits
           rdf:resource="http://scripts.sil.org/pub/OFL/Embedding" /><cc:permits
           rdf:resource="http://scripts.sil.org/pub/OFL/DerivativeWorks" /><cc:requires
           rdf:resource="http://scripts.sil.org/pub/OFL/Notice" /><cc:requires
           rdf:resource="http://scripts.sil.org/pub/OFL/Attribution" /><cc:requires
           rdf:resource="http://scripts.sil.org/pub/OFL/ShareAlike" /><cc:requires
           rdf:resource="http://scripts.sil.org/pub/OFL/DerivativeRenaming" /><cc:requires
           rdf:resource="http://scripts.sil.org/pub/OFL/BundlingWhenSelling" /></cc:License></rdf:RDF></metadata><g
     id="layer1"
     inkscape:groupmode="layer"
     inkscape:label="construction"
     style="display:none"
     transform="translate(-38.828427,-187.73312)"
     sodipodi:insensitive="true"><image
       width="12143.697"
       height="9107.7715"
       preserveAspectRatio="none"
       xlink:href="source_image.jpeg"
       id="image1"
       x="31932.045"
       y="-4901.3369"
       inkscape:label="source_image.jpeg"
       transform="rotate(-0.42706528)"
       style="display:none"
       sodipodi:insensitive="true" /></g><g
     inkscape:groupmode="layer"
     id="layer41"
     inkscape:label="semicolon"
     sodipodi:insensitive="true"><path
       id="path69-3-1"
       style="display:inline;fill:#000000;fill-opacity:1;stroke-width:1.03797"
       d="m 40900,468 a 62,62 0 0 0 -62,62 62,62 0 0 0 62,62 62,62 0 0 0 62,-62 62,62 0 0 0 -62,-62 z m 4,364.166 c -34.242,0 -62,27.7584 -62,62 0,23.9842 13.89,45.6975 35.52,56.0606 5.893,2.8235 11.347,3.6081 11.347,11.7734 0,15.8272 -28.357,54.6401 -48.24,54.6426 v 27.5761 c 84.335,0 128.623,-78.0527 128.623,-143.0527 0,-34.2416 -19.758,-69 -65.25,-69 z"
       inkscape:label="semicolon" /></g><g
     inkscape:groupmode="layer"
     id="layer40"
     inkscape:label="colon"
     sodipodi:insensitive="true"><path
       id="path69-3"
       style="display:inline;fill:#000000;fill-opacity:1;stroke-width:1.03797"
       inkscape:label="colon"
       d="m 39928.828,655.73312 a 62,62 0 0 0 -62,62 62,62 0 0 0 62,62 62,62 0 0 0 62,-62 62,62 0 0 0 -62,-62 z m 0,369.99998 a 62,62 0 0 0 -62,62 62,62 0 0 0 62,62 62,62 0 0 0 62,-62 62,62 0 0 0 -62,-62 z"
       transform="translate(-38.828427,-187.73312)"
       sodipodi:insensitive="true" /></g><g
     inkscape:groupmode="layer"
     id="layer39"
     inkscape:label="comma"
     sodipodi:insensitive="true"><path
       id="path69-8"
       style="display:inline;fill:#000000;stroke-width:1.03797"
       inkscape:label="comma"
       d="m 38880,838 c -34.242,0 -62,27.75835 -62,62 0,23.98417 13.89,45.69752 35.52,56.06055 5.893,2.82352 11.347,3.60817 11.347,11.77343 0,15.82718 -28.357,54.64012 -48.24,54.64262 v 27.5761 c 84.335,0 128.623,-78.0527 128.623,-143.0527 0,-34.24165 -19.758,-69 -65.25,-69 z"
       sodipodi:nodetypes="ssssccss"
       sodipodi:insensitive="true" /></g><g
     inkscape:groupmode="layer"
     id="layer38"
     inkscape:label="period"
     sodipodi:insensitive="true"><path
       id="path69"
       style="display:inline;opacity:1;stroke-width:1.03797"
       inkscape:label="period"
       transform="translate(-38.828427,-187.73312)"
       d="m 37970.828,1087.7332 a 62,62 0 0 1 -62,62 62,62 0 0 1 -62,-62 62,62 0 0 1 62,-62 62,62 0 0 1 62,62 z" /></g><g
     inkscape:groupmode="layer"
     id="layer37"
     inkscape:label="0"
     sodipodi:insensitive="true"><path
       id="path68"
       style="opacity:1;fill:#000000;fill-opacity:1"
       d="m 36867.133,94.5 c -204.535,0 -322.44,242.67767 -322.44,449.97266 0,207.29498 114.904,427.52734 322.44,427.52734 207.536,0 307.945,-237.36676 307.945,-427.52734 0,-190.16058 -103.41,-449.97266 -307.945,-449.97266 z m -2.682,49.5 c 145.112,0 193.992,230.50047 193.992,399.20703 0,168.70657 -29.638,379.29297 -193.992,379.29297 -164.354,0 -203.123,-195.38511 -203.123,-379.29297 0,-183.90785 58.011,-399.20703 203.123,-399.20703 z"
       inkscape:label="0"
       sodipodi:insensitive="true" /></g><g
     inkscape:groupmode="layer"
     id="layer36"
     inkscape:label="9"
     sodipodi:insensitive="true"><path
       id="path64-3"
       style="opacity:1;fill:#000000;fill-opacity:1"
       d="m 35776,977.25 c 184,0 374.25,-179.1476 374.25,-498.75 0,-198.5157 -94.25,-384.5 -317.75,-384.5 -223.5,0 -282.75,203.75 -282.75,276.75 0,106 67.75,268.75 270.25,268.75 131.5,0 202.25,-62.75 202.25,-62.75 0,207.4953 -135.894,350.5 -278.5,350.5 -93.95,0 -117.854,-23.1035 -117.854,-23.1035 l 2.268,55.9141 c 0,0 71.316,17.1894 147.836,17.1894 z m 62.695,-388.2402 c -132.885,0 -172.145,-132.4592 -171.119,-228.3946 1.026,-95.9353 19.72,-218.4961 171.119,-218.4961 151.399,0 188.799,154.9093 188.799,248.1953 0,93.2861 -55.914,198.6954 -188.799,198.6954 z"
       inkscape:label="9"
       sodipodi:insensitive="true" /></g><g
     inkscape:groupmode="layer"
     id="layer35"
     inkscape:label="8"
     sodipodi:insensitive="true"><path
       id="path66"
       style="opacity:1;fill:#000000;fill-opacity:1"
       d="m 34832.787,90.863281 c -127.963,0 -226.537,91.136719 -226.537,203.886719 0,112.75 109.809,188.0346 143.555,220 -126.5,77.25 -167.555,134 -167.555,239.25 0,110.61396 68.021,218 244,218 188,0 269.25,-131.09315 269.25,-243 0,-144.43377 -170.535,-233.58008 -170.535,-233.58008 -1.414,-1.41421 -7.334,-3.45956 -7.324,-6.63281 0.01,-2.56715 2.092,-5.59281 4.064,-6.54102 4.815,-2.31527 144.074,-79.79059 144.074,-211.24609 0,-41.01251 -36.418,-180.136719 -232.992,-180.136719 z m 1.414,53.740239 c 62.679,0 149.555,20.50526 149.555,117.3789 0,115.2584 -108.541,199.4043 -108.541,199.4043 -6.364,-1.41421 -170.768,-110.30794 -170.768,-207.88867 0,-66.46804 59.202,-108.89453 129.754,-108.89453 z m -42.072,398.10156 c 68,53.5 197.637,113.77343 197.637,234.75976 0,127.98633 -122.694,145.60519 -157.508,144.7793 C 34755.852,920.43155 34671,862.5 34671,759.25 c 0,-122.75 74.129,-169.04492 121.129,-216.54492 z"
       inkscape:label="8"
       sodipodi:insensitive="true" /></g><g
     inkscape:groupmode="layer"
     id="layer33"
     inkscape:label="7"
     sodipodi:insensitive="true"><path
       style="opacity:1;fill:#000000;fill-opacity:1"
       d="M 33688.688,970.85761 C 33684.445,916.5 34005.5,172.5 34005.5,172.5 h -293 c -103.479,0 -166.5,86.5 -166.5,86.5 l 43,-147 h 535.5 c 0,0 -290.5,649.4709 -290.5,860 z"
       id="path65"
       inkscape:label="7"
       sodipodi:nodetypes="ccsccccc"
       sodipodi:insensitive="true" /></g><g
     inkscape:groupmode="layer"
     id="layer34"
     inkscape:label="6"
     sodipodi:insensitive="true"><path
       id="path64"
       style="opacity:1;fill:#000000;fill-opacity:1"
       d="m 32892.25,98.25 c -184,0 -374.25,179.14762 -374.25,498.75 0,198.51574 94.25,384.5 317.75,384.5 223.5,0 282.75,-203.75 282.75,-276.75 0,-106 -67.75,-268.75 -270.25,-268.75 -131.5,0 -202.25,62.75 -202.25,62.75 0,-207.49531 135.894,-350.5 278.5,-350.5 93.95,0 117.854,23.10352 117.854,23.10352 l -2.268,-55.91407 c 0,0 -71.316,-17.18945 -147.836,-17.18945 z m -62.695,388.24023 c 132.885,0 172.145,132.45919 171.119,228.39454 -1.026,95.93535 -19.72,218.49609 -171.119,218.49609 -151.399,0 -188.799,-154.90925 -188.799,-248.19531 0,-93.28606 55.914,-198.69532 188.799,-198.69532 z"
       inkscape:label="6"
       sodipodi:insensitive="true" /></g><g
     inkscape:groupmode="layer"
     id="layer32"
     inkscape:label="5"
     sodipodi:insensitive="true"><path
       style="opacity:1;fill:#000000;fill-opacity:1"
       d="M 32038.594,264.5 31989.157,112 h -348.135 l -68.002,429.34478 c 0,0 95.48,-56.84478 192.98,-56.84478 124.37,0 191,95.5 191,236 0,140.5 -80.98,210.75687 -190.581,210.75687 -109.602,0 -207.89,-105.7097 -207.89,-105.7097 l -15.91,47.0226 c 0,0 110.663,112.78353 223.8,112.78353 159.806,0 312.894,-105.00535 312.894,-288.14601 0,-183.14066 -160.866,-266.22571 -313.248,-266.22571 -42.072,0 -89.273,15.00673 -89.273,15.00673 L 31720.109,172.5 h 125.391 c 0,0 141.125,1.98735 193.094,92 z"
       id="path63"
       sodipodi:nodetypes="ccccsssccssscccc"
       inkscape:label="5"
       sodipodi:insensitive="true" /></g><g
     inkscape:groupmode="layer"
     id="layer31"
     inkscape:label="4"
     sodipodi:insensitive="true"><path
       id="path20-5-62-8"
       style="display:inline;opacity:1;fill:#000000;fill-opacity:1"
       inkscape:label="4"
       d="m 30980.236,104 c 0.127,0 -103.89,23.79688 -103.89,23.79688 l -362.434,558.09765 2.082,61.10547 h 345.111 l 0.43,122.75 c 0.184,52.51262 -48.649,94.25 -67.387,94.25 -1.503,0 -4,1.42688 -4,4 0,2.63562 1.926,4 4,4 h 247.479 c 2.074,0 4,-1.36438 4,-4 0,-2.57312 -2.497,-4 -4,-4 -10.253,0 -61.391,-26.74313 -61.391,-74.25 0,-46.47372 0.166,-94.38601 0.414,-142.75 h 109.145 l 0.814,-61.10547 h -109.607 c 1.419,-226.53082 3.911,-453.87199 -0.766,-581.89453 z m -120.701,194.48828 1.356,387.40625 h -252.94 z"
       sodipodi:insensitive="true" /></g><g
     inkscape:groupmode="layer"
     id="layer30"
     inkscape:label="3"
     sodipodi:insensitive="true"><path
       style="opacity:1;fill:#000000;fill-opacity:1"
       d="m 29593,112 c 147.988,3.70636 278.482,3.35621 422.84,0 l -208.21,333.20637 c 30.414,0 247.37,34.53676 247.37,260.29363 0,225.75687 -197,283 -285.5,283 -159.211,0 -242,-114 -242,-114 l 16.25,-46.75 c 0,0 98.208,107.125 198.5,107.125 76.25,0 193.116,-48.16309 193.116,-205.84791 0,-157.68481 -90.527,-243.81744 -162.733,-243.81744 h -81.92 l 194.583,-311.39818 -136.759,-0.35355 c -79.911,-0.20659 -184.756,38.32056 -199.605,87.46448 C 29534.083,310.06632 29593,112 29593,112 Z"
       id="path60"
       sodipodi:nodetypes="cccssccsssccssc"
       inkscape:label="3"
       sodipodi:insensitive="true" /></g><g
     inkscape:groupmode="layer"
     id="layer29"
     inkscape:label="2"
     sodipodi:insensitive="true"><path
       style="opacity:1;fill:#000000;fill-opacity:1"
       d="M 28503.507,904.55783 V 972 c 0,0 442.578,0 501.975,4.24264 L 29050.75,827.75 c 0,0 -84.828,88.75 -182.408,88.75 h -268.171 c 0,0 207.923,-203.47039 318.829,-309.5 64.34,-61.51097 125.5,-97.25 125.5,-252.5 0,-116.25 -63,-254.5 -279.75,-254.5 -164.778,0 -251,104.5 -251,104.5 l -2,66.5 c 0,0 73,-99.5 228.5,-99.5 155.5,0 184.864,115.68593 184.864,170.71447 0,125.75626 -106.359,235.89367 -106.359,235.89367 z"
       id="path58"
       sodipodi:nodetypes="ccccscsssccsscc"
       inkscape:label="2"
       sodipodi:insensitive="true" /></g><g
     inkscape:groupmode="layer"
     id="layer28"
     inkscape:label="1"
     sodipodi:insensitive="true"><path
       id="path20-5-62"
       style="display:inline;opacity:1;fill:#000000;fill-opacity:1"
       inkscape:label="1"
       d="m 27622.972,151.90649 c -2.008,0.51931 -7.359,6.4909 -7.359,9.12652 0,2.57312 4.442,9.48008 5.945,9.48008 82.731,0 89.925,45.52145 90.091,95.73691 l 2,603.5 c 0.174,52.51265 -48.65,94.25 -67.388,94.25 -1.503,0 -4,1.42688 -4,4 0,2.63562 1.926,4 4,4 h 247.478 c 2.074,0 4,-1.36438 4,-4 0,-2.57312 -2.497,-4 -4,-4 -10.253,0 -61.389,-26.74313 -61.389,-74.25 0,-282.75 6.1,-618.75 0,-785.75 0.127,0 -209.378,47.90649 -209.378,47.90649 z"
       sodipodi:nodetypes="sssssssssssscs"
       sodipodi:insensitive="true" /></g><g
     inkscape:groupmode="layer"
     id="layer16"
     inkscape:label="Z"
     sodipodi:insensitive="true"><path
       style="display:inline;opacity:1;fill:#000000;fill-opacity:1"
       d="m 27204.194,291.73312 c 0,0 -613.829,0 -736.866,-4 l -75.268,161.80761 c 0,0 88.023,-105.53701 249.268,-105.53701 h 359.214 l -640.906,805.72938 c 0,0 -3.986,4.5387 -4.045,6.5365 -0.116,3.9385 2.232,3.4635 4.045,3.4635 h 667.833 c 112.065,-0.2703 108.589,8.4036 108.589,8.4036 l 79.196,-197.63637 c -115,108.49997 -171.58,133.73277 -301.581,133.73277 h -355.771 z"
       id="path56"
       sodipodi:nodetypes="ccccccsccccccc"
       transform="translate(-64.828427,-187.73312)"
       inkscape:label="Z"
       sodipodi:insensitive="true" /></g><g
     inkscape:groupmode="layer"
     id="layer12"
     inkscape:label="Y"
     sodipodi:insensitive="true"><path
       id="path49-5-9"
       style="display:inline;opacity:1;fill:#000000;fill-opacity:1"
       inkscape:label="Y"
       d="m 25354.193,106 c -2.074,0 -4,1.36438 -4,4 0,2.57312 2.497,4 4,4 10.253,0 77.018,30.54297 105.338,74.79297 l 225.434,360.76758 8.683,13.89648 V 869.75 c 0,52.513 -48.648,94.25 -67.386,94.25 -1.503,0 -4,1.4269 -4,4 0,2.6356 1.926,4 4,4 h 243.476 c 2.074,0 4,-1.3644 4,-4 0,-2.5731 -2.497,-4 -4,-4 -10.253,0 -61.388,-26.7431 -61.388,-74.25 V 579.11914 l 245.302,-392.56445 c 31,-49.6095 83.609,-72.55469 106.112,-72.55469 1.503,0 4,-1.42688 4,-4 0,-2.63562 -1.926,-4 -4,-4 h -166.953 c -2.074,0 -4,1.36438 -4,4 0,2.57312 2.497,4 4,4 13.909,0 17.878,11.65415 17.878,25.13086 0,13.98195 -6.495,30.73965 -13.519,41.95703 l -206.994,330.55469 -191.832,-306.9961 c -7.635,-12.21864 -28.115,-44.99344 -28.115,-62.64648 0,-22.72262 14.187,-28 25.439,-28 1.503,0 4,-1.42688 4,-4 0,-2.63562 -1.926,-4 -4,-4 z"
       sodipodi:insensitive="true" /></g><g
     inkscape:groupmode="layer"
     id="layer3"
     inkscape:label="X"
     sodipodi:insensitive="true"><path
       id="path49-5"
       style="display:inline;opacity:1;fill:#000000;fill-opacity:1"
       inkscape:label="X"
       d="m 24356.168,104 c -2.074,0 -4,1.36438 -4,4 0,2.57312 2.497,4 4,4 10.253,0 69.787,30 98.107,74.25 l 229.805,355.0918 -231.635,343.41601 C 24419.733,933.25503 24356.716,964 24334.213,964 c -1.503,0 -4,1.42688 -4,4 0,2.63562 1.926,4 4,4 h 185.475 c 2.074,0 4,-1.36438 4,-4 0,-2.57312 -2.497,-4 -4,-4 -27.819,0 -38.135,-26.97532 -23.333,-48.91992 l 219.297,-325.11914 184.299,283.79687 c 7.847,12.08377 35.221,54.23241 35.221,67.75196 0,19.18709 -20.186,22.49023 -31.438,22.49023 -1.503,0 -4,1.42688 -4,4 0,2.63562 1.926,4 4,4 h 241.477 c 2.074,0 4,-1.36438 4,-4 0,-2.57312 -2.497,-4 -4,-4 -10.253,0 -75.214,-38.49785 -101.207,-78.52344 l -239.215,-368.35937 224.315,-332.5625 C 25061.816,136.05743 25131.235,112 25153.738,112 c 1.503,0 4,-1.42688 4,-4 0,-2.63562 -1.926,-4 -4,-4 h -185.476 c -2.074,0 -4,1.36438 -4,4 0,2.57312 2.497,4 4,4 27.819,0 19.161,45.14317 4.359,67.08789 l -197.348,292.57813 -176.218,-271.35352 c -7.847,-12.0837 -27.938,-46.6062 -27.938,-58.3125 0,-19.71742 23.274,-30 34.526,-30 1.503,0 4,-1.42688 4,-4 0,-2.63562 -1.926,-4 -4,-4 z"
       sodipodi:nodetypes="sssccsssssssscssssssssscsssssssscssssss"
       sodipodi:insensitive="true" /></g><g
     inkscape:groupmode="layer"
     id="layer27"
     inkscape:label="W"
     sodipodi:insensitive="true"
     style="display:inline"><path
       id="path52"
       style="display:inline;opacity:1;fill:#000000;fill-opacity:1"
       d="m 23124.262,104 c -2.074,0 -4,1.36438 -4,4 0,2.57312 2.497,4 4,4 2.686,0 76.053,0.71159 111.566,116.625 l 237.611,775.5449 236.346,-667.42185 207.735,679.46485 283.816,-801.47178 C 24220.863,159.59824 24291.235,112 24313.738,112 c 1.503,0 4,-1.42688 4,-4 0,-2.63562 -1.926,-4 -4,-4 h -189.476 c -2.074,0 -4,1.36438 -4,4 0,2.57312 2.497,4 4,4 27.819,0 37.204,49.82924 28.368,74.78106 L 23954.246,747 23787.662,202.24219 c -2.109,-6.89606 -7.108,-29.46803 -7.108,-44.8698 0,-28.85278 36.331,-45.37239 47.583,-45.37239 1.503,0 4,-1.42688 4,-4 0,-2.63562 -1.926,-4 -4,-4 h -245.477 c -2.074,0 -4,1.36438 -4,4 0,2.57312 2.497,4 4,4 45.608,0 64.087,30.92827 84.11,74.25 19.445,42.07285 18.891,71.58806 14.23,84.75 l -168.561,476 c -53.604,-182.00672 -113.042,-362.31977 -165.175,-544.75781 -3.959,-13.8538 -9.465,-29.53697 -9.465,-49.375 0,-19.18709 24.687,-40.86719 35.939,-40.86719 1.503,0 4,-1.42688 4,-4 0,-2.63562 -1.926,-4 -4,-4 z"
       sodipodi:nodetypes="sssscccsssssssscsssssssssscssssss"
       inkscape:label="W" /></g><g
     inkscape:groupmode="layer"
     id="layer26"
     inkscape:label="V"
     style="display:inline"
     sodipodi:insensitive="true"><path
       id="path49"
       style="display:inline;opacity:1;fill:#000000;fill-opacity:1"
       d="m 22304.262,104 c -2.074,0 -4,1.36438 -4,4 0,2.57312 2.497,4 4,4 10.253,0 80.231,30 98.109,74.25 l 325.658,806.0332 59.215,-146.56445 262.408,-649.48047 C 23071.566,141.99992 23111.235,112 23133.738,112 c 1.503,0 4,-1.42688 4,-4 0,-2.63562 -1.926,-4 -4,-4 h -185.476 c -2.074,0 -4,1.36438 -4,4 0,2.57312 2.497,4 4,4 27.819,0 45.826,49.53801 36.34,74.25 l -225.965,588.66016 -231.373,-572.66797 c -5.398,-13.35898 -9.465,-29.53697 -9.465,-49.375 0,-19.18709 24.687,-40.86719 35.939,-40.86719 1.503,0 4,-1.42688 4,-4 0,-2.63562 -1.926,-4 -4,-4 z"
       inkscape:label="V"
       sodipodi:insensitive="true" /></g><g
     inkscape:groupmode="layer"
     id="layer25"
     inkscape:label="U"
     sodipodi:insensitive="true"><path
       id="path20-5-69"
       style="display:inline;opacity:1;fill:#000000;fill-opacity:1"
       inkscape:label="U"
       d="m 21290.262,104 c -2.074,0 -4,1.36438 -4,4 0,2.57312 2.497,4 4,4 10.253,0 59.386,39.23706 59.386,74.25 V 706.5 c 0,124.54466 51.601,280.79688 307.795,280.79688 173.678,-10e-6 274.272,-87.69644 289.401,-101.875 V 972 h 176.894 c 2.074,0 4,-1.36438 4,-4 0,-2.57312 -2.497,-4 -4,-4 -10.253,0 -61.388,-26.74313 -61.388,-74.25 v -683.5 c 0,-52.51294 42.885,-94.25 65.388,-94.25 1.503,0 4,-1.42688 4,-4 0,-2.63562 -1.926,-4 -4,-4 h -239.476 c -2.074,0 -4,1.36438 -4,4 0,2.57312 2.497,4 4,4 10.253,0 59.386,39.23706 59.386,74.25 V 786.28125 C 21936.957,817.06424 21880.667,918.25 21714,918.25 c -142.09,0 -249.65,-57.59221 -249.65,-259.75 V 206.25 c 0,-52.51294 42.885,-94.25 65.388,-94.25 1.503,0 4,-1.42688 4,-4 0,-2.63562 -1.926,-4 -4,-4 z"
       sodipodi:nodetypes="ssssssccsssssssssssscsssssss"
       sodipodi:insensitive="true" /></g><g
     inkscape:groupmode="layer"
     id="layer24"
     inkscape:label="T"
     sodipodi:insensitive="true"><path
       id="path20-5-7"
       style="display:inline;opacity:1;fill:#000000;fill-opacity:1"
       inkscape:label="T"
       d="m 20376.5,104 -31.611,143.24219 c 45.268,-76.61227 132.206,-96.27539 172.511,-96.27539 h 130.248 V 869.75 c 0,52.51294 -48.648,94.25 -67.386,94.25 -1.503,0 -4,1.42688 -4,4 0,2.63562 1.926,4 4,4 h 243.476 c 2.074,0 4,-1.36438 4,-4 0,-2.57312 -2.497,-4 -4,-4 -10.253,0 -67.388,-26.74313 -67.388,-74.25 V 150.9668 h 137.949 c 107.481,0 121.977,33.94219 141.422,99.70312 L 21051.275,104 Z"
       sodipodi:nodetypes="ccscsssssssscsccc"
       sodipodi:insensitive="true" /></g><g
     inkscape:groupmode="layer"
     id="layer23"
     inkscape:label="S"
     sodipodi:insensitive="true"><path
       style="opacity:1;fill:#000000;fill-opacity:1"
       d="m 19904.348,126.57211 -2.828,152.38152 c 0,0 -44.901,-147.43177 -207.182,-147.43177 -144.71,0 -148.492,122.08802 -148.492,132.22897 0,63.38156 23.593,108.71134 164.756,190.21172 160.615,92.73107 231.87,150.9673 231.87,291.328 0,140.36069 -124.037,234.613 -296.571,234.613 -158.034,0 -230.163,-65.83631 -230.163,-65.83631 l -7.071,-152.86679 c 0,0 81.848,168.55918 239.356,168.55918 157.508,0 181.977,-130.25963 181.977,-160.50963 0,-30.95711 12.875,-105.1618 -219.349,-231.18503 C 19493.796,474.6505 19429.5,372.6284 19429.5,287.5 c 0,-115.88679 108.874,-206.5 259,-206.5 130.5,0 215.848,45.57211 215.848,45.57211 z"
       id="path46"
       sodipodi:nodetypes="ccsssssccsssssc"
       inkscape:label="S"
       sodipodi:insensitive="true" /></g><g
     inkscape:groupmode="layer"
     id="layer22"
     inkscape:label="R"
     sodipodi:insensitive="true"><path
       id="path20-59-8-6-6-5"
       style="display:inline;opacity:1;fill:#000000;fill-opacity:1"
       inkscape:label="R"
       d="m 18310.068,104.55078 c -2.918,0 -4.951,2.38289 -4.951,5.08789 0,2.205 2.168,4.89911 4.951,4.91211 51.47,6.18136 76.902,49.46528 76.662,91.19141 L 18382.957,860.5 c -0.223,38.67775 -20.389,101.26258 -72.889,101.5 -2.782,0.0126 -4.951,2.70712 -4.951,4.91211 0,2.70499 2.033,5.08789 4.951,5.08789 h 254 c 1.941,0 4.274,-2.14453 4.274,-5.11328 0,-3.11305 -1.966,-4.88672 -4.11,-4.88672 -35.532,0 -66.574,-50.1759 -66.574,-77.19922 0,-38.44191 -1.624,-173.92097 -1.961,-316.07617 11.837,-0.50891 24.111,-0.28431 31.219,-0.11914 0.954,0.0772 2.779,0.11914 5.609,0.11914 0.115,0 0.229,7.7e-4 0.344,0.002 C 18569.68,569.10338 18622,629.5 18622,629.5 l 263.762,342.5 h 167.937 c 3.125,0 6,-2.39658 6,-5 0,-2.60342 -2.935,-5 -6,-5 -82.573,0 -171.641,-184.81625 -286.035,-325.60352 -30.199,-37.16614 -55.084,-58.3735 -76.248,-68.98828 -0.04,-0.0224 -6.238,-3.74338 -6.297,-9.23632 -0.06,-5.48563 5.239,-9.14219 5.285,-9.17383 123.671,-32.86835 228.502,-108.12894 228.502,-235.71094 0,-63.8183 -56.725,-208.73633 -248.744,-208.73633 z m 260.926,51.92969 c 196.994,0 220.877,107.11895 220.877,164.54492 0,122.69157 -90.181,196.27148 -237.701,196.27149 h -58.531 c 0.08,-181.91295 0,-307.60582 0,-330.10157 0,-25.12911 53.583,-30.71484 75.355,-30.71484 z"
       sodipodi:nodetypes="ssccssssssssccssccsssssscsssssscss"
       sodipodi:insensitive="true" /></g><g
     inkscape:groupmode="layer"
     id="layer21"
     inkscape:label="Q"
     sodipodi:insensitive="true"><path
       id="path42-0"
       style="display:inline;opacity:1;fill:#000000;fill-opacity:1"
       inkscape:label="Q"
       d="m 17674.516,104 c -301.99,-9.465494 -453.064,223.01163 -455.256,431.63281 -1.481,141.0129 61.639,290.61392 193.754,377.69531 -72.896,3.35856 -104.807,11.92969 -111.514,11.92969 V 954 c 0,0 39.62,-7.76777 63.01,-7.76777 245.824,0 310.496,112.52807 489.49,114.76777 37.653,0.4712 109,-21 109,-21 l 1.5,-28.5 c 0,0 -39.117,9 -60,9 -48.38,0 -85.566,-17.7434 -148.773,-37.20898 C 17989.703,948.55486 18121.614,746.75436 18124,561 c 2.732,-212.71729 -147.762,-447.54292 -449.484,-457 z m -18,46.99805 c 230.842,0 343.222,219.5785 345.5,394.5 2.149,164.95825 -75.737,392.0625 -316.153,392.0625 -251.84,0 -338.847,-219.28578 -338.847,-391.0625 0,-166.0343 83.467,-395.5 309.5,-395.5 z"
       sodipodi:nodetypes="sscccssccscsssssss"
       sodipodi:insensitive="true" /></g><g
     inkscape:groupmode="layer"
     id="layer20"
     inkscape:label="P"
     sodipodi:insensitive="true"><path
       id="path20-59-8-6-6"
       style="display:inline;opacity:1;fill:#000000;fill-opacity:1"
       inkscape:label="P"
       d="m 16354.068,104.55078 c -2.918,0 -4.951,2.38289 -4.951,5.08789 0,2.205 2.168,4.89911 4.951,4.91211 51.47,6.18136 76.902,49.46528 76.662,91.19141 L 16426.957,860.5 c -0.223,38.67775 -20.389,101.26258 -72.889,101.5 -2.782,0.0126 -4.951,2.70712 -4.951,4.91211 0,2.70499 2.033,5.08789 4.951,5.08789 h 254 c 1.941,0 4.274,-2.14369 4.274,-5.11244 0,-3.11305 -1.966,-4.88756 -4.11,-4.88756 -35.532,0 -66.574,-50.1759 -66.574,-77.19922 0,-38.44191 -1.624,-109.92097 -1.961,-252.07617 16.423,-0.70608 37.69,0 40.828,0 176.228,0.95431 415.434,-25.72461 420.565,-303.17383 1.18,-63.80739 -39.048,-225 -286.928,-225 z m 260.926,51.92969 c 242.249,0 264.012,145.30254 264.012,202.72851 0,158.04691 -147.32,220.0879 -224.836,220.0879 h -114.531 c 0.08,-181.91294 0,-369.60514 0,-392.10089 0,-25.12911 53.583,-30.71552 75.355,-30.71552 z"
       sodipodi:nodetypes="ssccsssssssscssssssscss" /></g><g
     inkscape:groupmode="layer"
     id="layer19"
     inkscape:label="O"
     sodipodi:insensitive="true"><path
       id="path42"
       style="display:inline;opacity:1;fill:#000000;fill-opacity:1"
       d="m 15652.516,104 c -284.948,-8.93132 -451.064,223.01163 -453.256,431.63281 -2.26,215.15175 143.869,452.2941 457.99,454.86719 281.541,2.30621 438.115,-224.37989 440.75,-429.5 2.732,-212.71729 -143.762,-447.54293 -445.484,-457 z m -18,46.99805 c 230.842,0 343.222,219.5785 345.5,394.5 2.149,164.95825 -75.737,388.0625 -316.153,388.0625 -251.84,0 -325.285,-219.30308 -330.847,-387.0625 -5.502,-165.94311 75.467,-395.5 301.5,-395.5 z"
       inkscape:label="O" /></g><g
     inkscape:groupmode="layer"
     id="layer2"
     inkscape:label="M"
     style="display:inline"
     sodipodi:insensitive="true"><path
       style="fill:#000000;fill-opacity:1"
       d="M 2096.8519,104 H 2271 L 2520,775.5 2819.4487,104 h 160.9263 c 3.375,0 4.3957,1.94047 4.3957,4.48079 0,2.19172 -4.0091,3.85581 -7.7292,3.85581 -39.6906,0 -73.1386,52.81739 -72.2549,86.56424 l 17.6929,675.66516 c 0.3447,13.16432 1.8171,69.40051 58.9231,87.62321 3.2792,1.0464 8.4679,1.48132 8.4679,4.95219 0,2.85839 -3.2374,4.8586 -5.7455,4.8586 h -232.9375 c -4.7899,0 -6.1862,-2.76283 -6.3607,-4.81313 -0.1745,-2.0503 1.1533,-4.40599 3.1393,-4.93813 14.7322,-3.94749 59.6494,-14.84883 62.6546,-94.7519 L 2795.0928,274.50797 2484.64,994.96548 2218.5756,283.34386 2177.2764,873.9494 c -2.7295,39.03386 14.0525,80.90837 41.1695,88.17434 6.5701,1.76044 12.0271,1.5 12.0271,4.93813 0,4.13343 -4.7795,4.93813 -9.973,4.93813 h -158.8328 c -3.4362,0 -5.429,-1.83698 -5.429,-3.93813 0,-2.22408 2.0173,-3.33669 3.5955,-3.93813 28.8078,-10.97838 60.4629,-24.3783 64.5669,-83.06869 L 2167.0595,271 c 3.48,-49.76646 11.1027,-158.77656 -68.265,-158.77656 -4.7911,0 -6.8173,-2.00677 -6.8173,-4.11172 0,-2.41633 1.9561,-4.11172 4.8747,-4.11172 z"
       id="path10"
       sodipodi:nodetypes="scccssscssssszsccccsssssssscsss"
       inkscape:label="M" /></g><g
     inkscape:groupmode="layer"
     id="layer4"
     inkscape:label="N"
     sodipodi:insensitive="true"
     style="display:inline"><path
       style="fill:#000000;fill-opacity:1"
       d="m 1229.3099,104 c 0,0 578.7329,689.70697 577.0811,687.73848 -1.4042,-1.67344 6.958,5.34281 11.2652,5.34281 4.9152,0 6.8947,-2.14784 6.8947,-5.34281 V 169.52885 c 0,-28.44448 -19.7753,-48.1276 -53.602,-57.52885 -2.1811,-0.60619 -4,-2.11438 -4,-4 0,-1.88562 1.3743,-4 4,-4 h 174.6554 c 0,0 4.125,0.91667 4,4 -0.125,3.08333 -4,4 -4,4 -35.7849,0 -72.1353,27.12326 -72.1353,63.53926 V 972 h -58.9495 L 1210.7917,252.50523 c -1.2057,-1.20566 -4.2926,-3.8007 -8.7456,-3.8007 -3.703,0 -6.6242,3.46707 -6.6242,7.8007 V 885.875 c 0,35.25798 30.6823,76.125 54.7031,76.125 4.0235,0 6,2.39658 6,5 0,2.60342 -3.3966,5 -6,5 H 1074.25 c -1.9897,0 -4,-2.86563 -4,-5 0,-2.57187 1.7491,-5 4,-5 30.2665,0 72.0198,-48.74671 72.0198,-86.75 V 196.22213 C 1146.2698,156.27021 1080.625,112 1080.625,112 c -1.7503,0 -4.2426,-2.04239 -4.2426,-4.35355 0,-2.05228 1.733,-3.64645 4.2426,-3.64645 z"
       id="path18"
       sodipodi:nodetypes="cssssszsczcccccscssssssssccscc"
       inkscape:label="N"
       sodipodi:insensitive="true" /></g><g
     inkscape:groupmode="layer"
     id="layer5"
     inkscape:label="L"
     style="display:inline"
     sodipodi:insensitive="true"><path
       style="fill:#000000;fill-opacity:1"
       d="m 3262.25,104 c -2.0741,0 -4,1.36438 -4,4 0,2.57312 2.4971,4 4,4 10.253,0 59.3896,39.23706 59.3896,74.25 V 860.5 c 0,38.67839 -26.3895,101.26258 -78.8896,101.5 -2.7828,0.0126 -4.9497,2.70662 -4.9497,4.91161 0,2.70499 2.0315,5.08839 4.9497,5.08839 H 3776.5 L 3821,801 c -85.5825,130.25687 -255.7033,119.65303 -274.1524,119.65303 -53.3076,0 -93.4466,-11.07318 -102.8069,-20.43348 -27.6636,-27.66361 -7.7006,-132.86633 -7.7006,-337.4967 V 242.97103 c 0,-97.08244 60.223,-130.97103 74.2575,-130.97103 1.8854,0 3.7858,-2.1798 3.8125,-3.90625 0.028,-1.78964 -2,-4.09375 -3.8125,-4.09375 z"
       id="path20"
       sodipodi:nodetypes="ssssssssccssccssss"
       inkscape:label="L"
       sodipodi:insensitive="true" /></g><g
     inkscape:groupmode="layer"
     id="layer6"
     inkscape:label="K"
     sodipodi:insensitive="true"
     style="display:inline"><path
       style="opacity:1;fill:#000000;fill-opacity:1"
       d="m 4206.0479,120 c -2.3228,0.004 -4,-2.11438 -4,-4 0,-1.88562 1.7201,-4 4,-4 h 243.2448 c 2.3125,0 4.3125,2.03934 4.3125,4 0,1.96066 -1.9301,3.99225 -4.3125,4 -55.2647,0.17977 -70.5372,78.17627 -70.5372,121.47697 V 493.9939 l 329.7686,-298.48431 c 16.0124,-14.49338 22.2451,-34.2855 22.2451,-49.66361 0,-20.9071 -33.5122,-33.84598 -35.2266,-33.84598 -1.5767,0 -4,-2.11438 -4,-4 0,-1.88562 1.6045,-4 4,-4 h 230.4613 c 2.1884,0 4,2.11438 4,4 0,1.88562 -2.7499,4 -4,4 -16.6356,0 -75.1362,25.96845 -126.0183,71.90313 l -323.8424,292.3542 374.5198,446.33536 c 25.9477,30.92327 77.0835,38.34012 78.9319,39.40731 1.7202,0.99314 4,2.86563 4,5 0,2.13437 -1.5,5 -4,5 h -236.4163 c -1.625,0 -4,-2.86563 -4,-5 0,-2.13437 1.5625,-5 4,-5 2.1344,0 12.9464,-8.48593 12.9464,-17.375 0,-8.66044 -9.927,-32.46302 -22.7688,-47.7673 L 4384.6853,540.91559 c -0.594,-0.70791 -1.3095,-0.93769 -1.9348,-0.93769 -2.1861,0 -3.995,3.47478 -3.995,6.79242 v 357.2657 c 0,35.54948 36.2379,57.96398 65.941,57.96398 3.5027,0 6,2.39658 6,5 0,2.60342 -2.1855,5 -6,5 h -249.432 c -2.3423,0 -4.6629,-2.86563 -4.6629,-5 0,-2.13437 2.2322,-5 4.6629,-5 C 4224.9249,962 4265,921.529 4265,889.89389 V 193.92404 C 4265,164.91327 4242.9229,119.9412 4206.0479,120 Z"
       id="path27"
       sodipodi:nodetypes="szsszsscssszsszsscsszsszsssssscszcszscss"
       inkscape:label="K"
       sodipodi:insensitive="true" /></g><g
     inkscape:groupmode="layer"
     id="layer7"
     inkscape:label="J"
     sodipodi:insensitive="true"
     style="display:inline"><path
       id="path20-5-0"
       style="display:inline;opacity:1;fill:#000000;fill-opacity:1"
       inkscape:label="J"
       d="m 5472.25,104 c -2.0741,0 -4,1.36438 -4,4 0,2.57312 2.4971,4 4,4 10.253,0 59.3887,39.23706 59.3887,74.25 V 641 c 0,220.65811 -47.3399,294.11984 -139.9176,352.25 -2.6875,1.6875 -7.8392,3.69262 -7.8392,7.546 0,3.8003 2.6944,7.546 8.1609,7.546 24.1549,0 249.8121,-36.33019 251.4686,-319.16181 L 5646.3398,206.25 c 0.3076,-52.51204 42.8857,-94.25 65.3887,-94.25 1.5029,0 4,-1.42688 4,-4 0,-2.63562 -1.9259,-4 -4,-4 z"
       sodipodi:nodetypes="ssssssssssssss" /></g><g
     inkscape:groupmode="layer"
     id="layer8"
     inkscape:label="I"
     style="display:inline"
     sodipodi:insensitive="true"><path
       id="path20-5"
       style="display:inline;opacity:1;fill:#000000;fill-opacity:1"
       inkscape:label="I"
       d="m 6444.2607,104 c -2.0741,0 -4,1.36438 -4,4 0,2.57312 2.497,4 4,4 10.2529,0 59.3887,39.23706 59.3887,74.25 v 683.5 c 0,52.51294 -48.6505,94.25 -67.3887,94.25 -1.503,0 -4,1.42688 -4,4 0,2.63562 1.9259,4 4,4 h 243.4785 c 2.0741,0 4,-1.36438 4,-4 0,-2.57312 -2.4971,-4 -4,-4 -10.253,0 -61.3888,-26.74313 -61.3888,-74.25 v -683.5 c 0,-52.51294 42.8857,-94.25 65.3888,-94.25 1.5029,0 4,-1.42688 4,-4 0,-2.63562 -1.9259,-4 -4,-4 z"
       sodipodi:nodetypes="sssssssssssssssss"
       sodipodi:insensitive="true" /></g><g
     inkscape:groupmode="layer"
     id="layer9"
     inkscape:label="H"
     style="display:inline"
     sodipodi:insensitive="true"><path
       id="path20-5-6"
       style="display:inline;opacity:1;fill:#000000;fill-opacity:1"
       inkscape:label="H"
       d="m 7153.2607,104 c -2.0741,0 -4,1.36438 -4,4 0,2.57312 2.497,4 4,4 10.2529,0 59.3887,39.23706 59.3887,74.25 v 683.5 c 0,52.51294 -48.6505,94.25 -67.3887,94.25 -1.503,0 -4,1.42688 -4,4 0,2.63562 1.9259,4 4,4 h 243.4785 c 2.0741,0 4,-1.36438 4,-4 0,-2.57312 -2.4971,-4 -4,-4 -10.253,0 -61.3906,-26.74313 -61.3906,-74.25 V 596.5 h 487.3008 v 273.25 c 0,52.51294 -48.6505,94.25 -67.3887,94.25 -1.503,0 -4,1.42688 -4,4 0,2.63562 1.9259,4 4,4 h 243.4785 c 2.0741,0 4,-1.36438 4,-4 0,-2.57312 -2.4971,-4 -4,-4 -10.253,0 -61.3906,-26.74313 -61.3906,-74.25 v -683.5 c 0,-52.51294 42.8875,-94.25 65.3906,-94.25 1.5029,0 4,-1.42688 4,-4 0,-2.63562 -1.9259,-4 -4,-4 h -239.4785 c -2.0741,0 -4,1.36438 -4,4 0,2.57312 2.497,4 4,4 10.2529,0 59.3887,39.23706 59.3887,74.25 V 545.5 H 7327.3486 V 206.25 c 0,-52.51294 42.8875,-94.25 65.3906,-94.25 1.5029,0 4,-1.42688 4,-4 0,-2.63562 -1.9259,-4 -4,-4 z"
       sodipodi:insensitive="true" /></g><g
     inkscape:groupmode="layer"
     id="layer10"
     inkscape:label="G"
     sodipodi:insensitive="true"><path
       id="path20-5-02"
       style="display:inline;opacity:1;fill:#000000;fill-opacity:1"
       inkscape:label="G"
       d="M 8635.8945,92.984375 C 8316.4368,92.984375 8163.5,304.68721 8163.5,536.25 c 0,101.82338 55.5068,447.86538 433.6816,447.86538 201.7954,0 357.9082,-106.34158 357.9082,-127.36538 v -169.5 c 0,-52.51294 42.8856,-94.25 65.3887,-94.25 1.5029,0 4,-1.42688 4,-4 0,-2.63562 -1.9259,-4 -4,-4 H 8781 c -2.0741,0 -4,1.36438 -4,4 0,2.57312 2.497,4 4,4 10.2529,0 59.3887,39.23706 59.3887,74.25 v 199.5 c 0,0 -80.9812,48.24609 -198.836,48.24609 C 8451.4449,914.99609 8285.5,747 8285.5,525.25 c 0,-95.13149 47.4016,-383.75 349,-383.75 224.3998,0 309.25,171.75 309.25,171.75 L 8922.5,143.5 c -2.2168,2.21677 -7.5965,0.90662 -12.8574,0.79102 -5.2609,-0.11559 -10.4029,-1.03662 -12.1426,-2.04102 -3.5543,-2.05206 -73.994,-49.265625 -261.6055,-49.265625 z"
       sodipodi:nodetypes="sssssssssssscsssccsss"
       sodipodi:insensitive="true" /></g><g
     inkscape:groupmode="layer"
     id="layer11"
     inkscape:label="F"
     sodipodi:insensitive="true"><path
       id="path20-59"
       style="display:inline;opacity:1;fill:#000000;fill-opacity:1"
       inkscape:label="F"
       d="m 9314.0684,104.55078 c -2.9182,0 -4.9512,2.3829 -4.9512,5.08789 0,2.20499 2.1684,4.89951 4.9512,4.91211 52.5001,0.23742 78.8886,62.82161 78.8886,101.5 v 674.25 c 0,35.01294 -49.1356,74.25 -59.3886,74.25 -1.5029,0 -4,1.42688 -4,4 0,2.63562 1.9259,4 4,4 h 248.3457 c 1.8125,0 3.8405,-2.30411 3.8125,-4.09375 -0.027,-1.72645 -1.9271,-3.90625 -3.8125,-3.90625 -21.2845,0 -74.2559,-33.89021 -74.2559,-130.97266 V 531.74414 H 9700.5 c 53.6889,0 90.7227,16 111.2227,60 V 420.01367 c -18.5,45.5 -50.2227,64 -111.2227,64 H 9507.6582 V 193.75 c 0,-27.02332 12.8261,-33.85352 56.5059,-33.85352 169.7699,0 233.2201,-4.33911 284.1543,109.6543 l -18.5,-165 z"
       sodipodi:nodetypes="sssssssssssscsccscssccs"
       sodipodi:insensitive="true" /></g><g
     inkscape:groupmode="layer"
     id="layer13"
     inkscape:label="E"
     sodipodi:insensitive="true"><path
       id="path20-59-8"
       style="display:inline;opacity:1;fill:#000000;fill-opacity:1"
       inkscape:label="E"
       d="m 10296.068,104.55078 c -2.918,0 -4.951,2.3829 -4.951,5.08789 0,2.20499 2.169,4.89951 4.951,4.91211 52.5,0.23742 78.666,62.82225 78.889,101.5 l 3.773,654.75781 c 0.24,41.72613 -25.192,85.01005 -76.662,91.19141 -2.783,0.013 -4.951,2.70711 -4.951,4.91211 0,2.705 2.033,5.08789 4.951,5.08789 h 533.75 l 44.5,-173 c -85.583,130.2569 -255.205,117.15234 -273.654,117.15234 -53.307,0 -95.946,-6.57279 -105.307,-15.93359 -20.913,-20.91353 -11.699,-368.47461 -11.699,-368.47461 h 192.842 c 53.689,0 90.723,16 111.223,60 V 420.01367 c -18.5,45.5 -50.223,64 -111.223,64 h -192.842 V 193.75 c 0,-27.02332 6.326,-33.85352 42.506,-33.85352 188.27,0 247.22,-4.33911 298.154,109.6543 l -18.5,-165 z"
       sodipodi:nodetypes="ssssssssccsscsccscssccs"
       sodipodi:insensitive="true" /></g><g
     inkscape:groupmode="layer"
     id="layer14"
     inkscape:label="D"
     sodipodi:insensitive="true"><path
       id="path20-59-8-1"
       style="display:inline;opacity:1;fill:#000000;fill-opacity:1"
       inkscape:label="D"
       d="m 11196.068,104.55078 c -2.918,0 -4.951,2.3829 -4.951,5.08789 0,2.20499 2.169,4.89951 4.951,4.91211 52.5,0.23742 78.666,62.82225 78.889,101.5 l 3.773,654.75781 c 0.24,41.72613 -25.192,85.01005 -76.662,91.19141 -2.783,0.013 -4.951,2.70711 -4.951,4.91211 0,2.705 2.033,5.08789 4.951,5.08789 h 286.998 c 290.995,0 559.954,-80.74313 559.954,-438.79102 0,-341.02346 -276.175,-428.6582 -443.202,-428.6582 z m 264.096,53.3457 c 221.504,0 464.082,60.73701 464.082,375.3125 0,213.79102 -108.525,382.02344 -435.18,382.02344 -42.73,0 -80.413,-11.71793 -87.709,-19.01367 -4.439,-4.43863 -9.621,-8.77207 -9.621,-60.22266 V 193.75 c 0,-27.02332 32.248,-35.85352 68.428,-35.85352 z"
       sodipodi:nodetypes="ssssccsssssssssssss"
       sodipodi:insensitive="true" /></g><g
     inkscape:groupmode="layer"
     id="layer15"
     inkscape:label="C"
     sodipodi:insensitive="true"><path
       id="path20-5-02-5"
       style="display:inline;opacity:1;fill:#000000;fill-opacity:1"
       inkscape:label="C"
       d="m 12697.895,88.98438 c -319.458,0 -472.395,215.70283 -472.395,447.26562 0,118.82338 85.892,447.8654 445.682,447.8654 201.795,0 323.366,-96.87402 323.366,-96.87402 l 9.077,-38.97814 c -66.991,27.85395 -147.218,66.73285 -300.072,66.73285 -190.108,0 -356.053,-167.99609 -356.053,-389.74609 0,-131.90104 47.402,-383.75 349,-383.75 236.4,0 313.493,170.33579 313.493,170.33579 L 12984.5,143.5 c -2.217,2.21677 -7.596,0.90662 -12.857,0.79102 -5.261,-0.11559 -10.403,-1.03662 -12.143,-2.04102 -3.554,-2.05206 -73.994,-53.26562 -261.605,-53.26562 z"
       sodipodi:nodetypes="sssccsssccsss"
       sodipodi:insensitive="true" /></g><g
     inkscape:groupmode="layer"
     id="layer17"
     inkscape:label="B"><path
       id="path20-59-8-6"
       style="display:inline;opacity:1;fill:#000000;fill-opacity:1"
       inkscape:label="B"
       d="m 13308.068,104.55078 c -2.918,0 -4.951,2.3829 -4.951,5.08789 0,2.20499 2.169,4.89951 4.951,4.91211 52.5,0.23742 78.666,62.82225 78.889,101.5 l 3.773,654.75781 c 0.24,41.72613 -25.192,85.01005 -76.662,91.19141 -2.783,0.013 -4.951,2.70711 -4.951,4.91211 0,2.705 2.033,5.08789 4.951,5.08789 h 360.095 c 247.88,0 282.927,-161.1817 282.927,-225 0,-45.91824 -2.835,-200.83471 -242.221,-264.97808 -2.295,-0.61493 -4.219,-1.92163 -4.219,-4.09809 0,-2.17646 1.511,-2.95938 4.734,-4.27756 57.468,-23.50369 171.596,-58.3815 171.596,-191.68533 0,-91.95002 -54.108,-177.41016 -203.162,-177.41016 z m 302.565,49.45703 c 59.908,0 164.439,22.85095 164.439,138.48828 0,28.39158 -13.902,165.33008 -236.547,165.33008 -3.138,0 -22.405,-2.04197 -38.828,-2.74805 0.337,-142.1552 1.961,-224.88621 1.961,-263.32812 0,-27.02332 38.795,-37.74219 108.975,-37.74219 z m 3.537,357.2461 c 77.516,0 224.836,72.04098 224.836,206.08789 0,98.72815 -46.648,200.42578 -202.125,200.42578 -36.539,0 -101.098,-0.12287 -123.024,-22.04883 -19.026,-19.02586 -14.134,-202.55191 -14.218,-384.46484 z"
       sodipodi:nodetypes="ssssscssssszssssssscsssssscs" /></g><g
     inkscape:groupmode="layer"
     id="layer18"
     inkscape:label="A"><path
       id="path41"
       style="opacity:1;fill:#000000;fill-opacity:1"
       d="m 14621.5,83 -285.977,785.71289 c -14.026,38.53562 -64.648,93.39902 -93.023,93.28711 -3.319,-0.0131 -6,2.39658 -6,5 0,2.60342 2.502,5 6,5 h 181.064 c 3.156,0 5.5,-2.39658 5.5,-5 0,-2.60342 -2.544,-5 -5.5,-5 -3.607,0 -42.866,-16.81989 -42.866,-44.93369 0,-13.92791 5.488,-36.86319 5.488,-36.86319 L 14466.877,658.5 h 284.041 l 80.894,190.57617 c 9.428,22.2112 13.207,43.5247 13.207,71.17296 0,16.94694 -19.64,41.75087 -29.011,41.75087 -1.939,0 -4,2.86563 -4,5 0,2.13437 1.999,5 4,5 h 236.705 c 2.829,0 4.619,-2.73107 4.619,-5 0,-2.26893 -2.369,-5 -4.619,-5 -14.751,0 -71.149,-30.74313 -92.414,-80.83984 z M 14597.998,298.24609 14729.057,607 h -243.434 z"
       sodipodi:nodetypes="csssssssscccsssssssscccccc"
       inkscape:label="A" /></g></svg>
