<?xml version="1.0" encoding="UTF-8" standalone="no"?>
<!-- Created with Inkscape (http://www.inkscape.org/) -->

<svg
   height="1000"
   width="1000"
   sodipodi:docname="Prospero.svg"
   version="1.1"
   id="svg1"
   inkscape:version="1.4.4 (dcaf3e7d9e, 2026-05-05)"
   xml:space="preserve"
   inkscape:export-batch-name=""
   inkscape:export-batch-path="export"
   xmlns:inkscape="http://www.inkscape.org/namespaces/inkscape"
   xmlns:sodipodi="http://sodipodi.sourceforge.net/DTD/sodipodi-0.dtd"
   xmlns:xlink="http://www.w3.org/1999/xlink"
   xmlns="http://www.w3.org/2000/svg"
   xmlns:svg="http://www.w3.org/2000/svg"
   xmlns:rdf="http://www.w3.org/1999/02/22-rdf-syntax-ns#"
   xmlns:cc="http://creativecommons.org/ns#"
   xmlns:dc="http://purl.org/dc/elements/1.1/"><title
     id="title2">Prospero Font SVG Source</title><sodipodi:namedview
     id="base"
     pagecolor="#ffffff"
     bordercolor="#000000"
     borderopacity="0.3"
     inkscape:pageopacity="0.0"
     inkscape:pageshadow="2"
     inkscape:zoom="0.0625"
     inkscape:cx="5864"
     inkscape:cy="952"
     inkscape:document-units="px"
     inkscape:current-layer="layer1"
     showgrid="false"
     showguides="true"
     showborder="true"
     inkscape:showpageshadow="false"
     inkscape:pagecheckerboard="0"
     inkscape:deskcolor="#d1d1d1"
     inkscape:window-width="1920"
     inkscape:window-height="1052"
     inkscape:window-x="0"
     inkscape:window-y="0"
     inkscape:window-maximized="1"><sodipodi:guide
       id="guide_baseline"
       inkscape:label="baseline"
       position="0,253"
       orientation="0,1"
       inkscape:locked="false" /><sodipodi:guide
       id="guide_ascender"
       inkscape:label="ascender"
       position="0,945"
       orientation="0,1"
       inkscape:locked="false" /><sodipodi:guide
       id="guide_caps"
       inkscape:label="caps"
       position="0,896"
       orientation="0,1"
       inkscape:locked="false" /><sodipodi:guide
       id="guide_xheight"
       inkscape:label="xheight"
       position="0,729"
       orientation="0,1"
       inkscape:locked="false" /><sodipodi:guide
       id="guide_descender"
       inkscape:label="descender"
       position="0,28"
       orientation="0,1"
       inkscape:locked="false" /><inkscape:page
       x="0"
       y="0"
       width="1000"
       height="1000"
       id="page2"
       margin="0"
       bleed="0"
       inkscape:label="Space" /><inkscape:page
       x="1010"
       y="0"
       width="1000"
       height="1000"
       id="page13"
       margin="0"
       bleed="0"
       inkscape:label="N" /><inkscape:page
       x="2020"
       y="0"
       width="1000"
       height="1000"
       id="page3"
       margin="0"
       bleed="0"
       inkscape:label="M" /><sodipodi:guide
       position="1236.0227,888"
       orientation="0.76604444,0.64278761"
       id="guide3"
       inkscape:locked="false"
       inkscape:label=""
       inkscape:color="rgb(246,97,81)" /><sodipodi:guide
       position="1088.7945,888"
       orientation="0,1"
       id="guide11"
       inkscape:locked="false"
       inkscape:label=""
       inkscape:color="rgb(220,138,221)" /><sodipodi:guide
       position="1978,68.74313"
       orientation="0,-1"
       id="guide12"
       inkscape:locked="false" /><sodipodi:guide
       position="1992.9225,38"
       orientation="0,1"
       id="guide13"
       inkscape:locked="false"
       inkscape:label=""
       inkscape:color="rgb(220,138,221)" /><sodipodi:guide
       position="1146.2698,537.51902"
       orientation="-1,0"
       id="guide14"
       inkscape:locked="false"
       inkscape:label=""
       inkscape:color="rgb(246,97,81)" /><sodipodi:guide
       position="1195.4219,253"
       orientation="-1,0"
       id="guide15"
       inkscape:locked="false"
       inkscape:label=""
       inkscape:color="rgb(246,97,81)" /><sodipodi:guide
       position="1340.6745,592.70649"
       orientation="0.76604444,0.64278761"
       id="guide16"
       inkscape:locked="false"
       inkscape:label=""
       inkscape:color="rgb(0,134,229)" /><sodipodi:guide
       position="1824.5509,193.27955"
       orientation="-1,0"
       id="guide17"
       inkscape:locked="false"
       inkscape:label=""
       inkscape:color="rgb(246,97,81)" /><sodipodi:guide
       position="1867.469,230.66782"
       orientation="1,0"
       id="guide18"
       inkscape:locked="false" /><inkscape:page
       x="3030"
       y="0"
       width="1000"
       height="1000"
       id="page18"
       margin="0"
       bleed="0"
       inkscape:label="L" /><sodipodi:guide
       position="3321.6396,542.28094"
       orientation="1,0"
       id="guide19"
       inkscape:locked="false" /><sodipodi:guide
       position="3436.3401,527.48694"
       orientation="1,0"
       id="guide20"
       inkscape:locked="false" /><inkscape:page
       x="4040"
       y="0"
       width="1000"
       height="1000"
       id="page20"
       margin="0"
       bleed="0"
       inkscape:label="K" /><sodipodi:guide
       position="4265,458"
       orientation="-1,0"
       id="guide21"
       inkscape:locked="false"
       inkscape:label=""
       inkscape:color="rgb(246,97,81)" /><sodipodi:guide
       position="4381.7032,508.66022"
       orientation="-0.66913061,0.74314483"
       id="guide22"
       inkscape:locked="false"
       inkscape:label=""
       inkscape:color="rgb(246,97,81)" /><sodipodi:guide
       position="4442,493"
       orientation="-0.66913061,0.74314483"
       id="guide23"
       inkscape:label=""
       inkscape:locked="false"
       inkscape:color="rgb(246,97,81)" /><sodipodi:guide
       position="4476.1432,523.74267"
       orientation="0.76604444,0.64278761"
       id="guide24"
       inkscape:locked="false"
       inkscape:label=""
       inkscape:color="rgb(246,97,81)" /><sodipodi:guide
       position="4493,330"
       orientation="0.76604444,0.64278761"
       id="guide25"
       inkscape:label=""
       inkscape:locked="false"
       inkscape:color="rgb(246,97,81)" /><sodipodi:guide
       position="4378.7555,466.15126"
       orientation="-1,0"
       id="guide26"
       inkscape:label=""
       inkscape:locked="false"
       inkscape:color="rgb(246,97,81)" /><inkscape:page
       x="5050"
       y="0"
       width="1000"
       height="1000"
       id="page27"
       margin="0"
       bleed="0"
       inkscape:label="J" /><sodipodi:guide
       position="5286.3401,757.02897"
       orientation="1,0"
       id="guide28"
       inkscape:locked="false" /><inkscape:page
       x="6060"
       y="0"
       width="1000"
       height="1000"
       id="page28"
       margin="0"
       bleed="0"
       inkscape:label="I" /><inkscape:page
       x="7070"
       y="0"
       width="1000"
       height="1000"
       id="page29"
       margin="0"
       bleed="0"
       inkscape:label="H" /><inkscape:page
       x="8080"
       y="0"
       width="1000"
       height="1000"
       id="page30"
       margin="0"
       bleed="0"
       inkscape:label="G" /><inkscape:page
       x="9090"
       y="0"
       width="1000"
       height="1000"
       id="page31"
       margin="0"
       bleed="0"
       inkscape:label="F" /></sodipodi:namedview><defs
     id="defs4" /><metadata
     id="metadata7"><rdf:RDF><cc:Work
         rdf:about=""><dc:format>image/svg+xml</dc:format><dc:type
           rdf:resource="http://purl.org/dc/dcmitype/StillImage" /><dc:title>Prospero Font SVG Source</dc:title><dc:date>July 18, 2026</dc:date><dc:creator><cc:Agent><dc:title>Dave Jeffery</dc:title></cc:Agent></dc:creator><dc:contributor><cc:Agent><dc:title>Font originally designed by Alan Jeapes of the British Broadcasting Corporation.</dc:title></cc:Agent></dc:contributor><cc:license
           rdf:resource="http://scripts.sil.org/OFL" /><dc:rights><cc:Agent><dc:title>released under Open Font Licence</dc:title></cc:Agent></dc:rights><dc:publisher><cc:Agent><dc:title>Dave Jeffery</dc:title></cc:Agent></dc:publisher><dc:language>British English</dc:language><dc:subject><rdf:Bag><rdf:li>COW</rdf:li><rdf:li>Jeapes</rdf:li><rdf:li>BBC</rdf:li><rdf:li>BBC ONE</rdf:li><rdf:li>BBC1</rdf:li><rdf:li>GEM</rdf:li><rdf:li>1985</rdf:li></rdf:Bag></dc:subject><dc:source>Scan obtained by Mark Boulton from Alan Jeapes's son.</dc:source></cc:Work><cc:License
         rdf:about="http://scripts.sil.org/OFL"><cc:permits
           rdf:resource="http://scripts.sil.org/pub/OFL/Reproduction" /><cc:permits
           rdf:resource="http://scripts.sil.org/pub/OFL/Distribution" /><cc:permits
           rdf:resource="http://scripts.sil.org/pub/OFL/Embedding" /><cc:permits
           rdf:resource="http://scripts.sil.org/pub/OFL/DerivativeWorks" /><cc:requires
           rdf:resource="http://scripts.sil.org/pub/OFL/Notice" /><cc:requires
           rdf:resource="http://scripts.sil.org/pub/OFL/Attribution" /><cc:requires
           rdf:resource="http://scripts.sil.org/pub/OFL/ShareAlike" /><cc:requires
           rdf:resource="http://scripts.sil.org/pub/OFL/DerivativeRenaming" /><cc:requires
           rdf:resource="http://scripts.sil.org/pub/OFL/BundlingWhenSelling" /></cc:License></rdf:RDF></metadata><g
     id="layer1"
     inkscape:groupmode="layer"
     inkscape:label="construction"
     style="display:none"
     transform="translate(-64.828427,-187.73312)"
     sodipodi:insensitive="true"><image
       width="12064.083"
       height="9048.0625"
       preserveAspectRatio="none"
       xlink:href="source_image.jpeg"
       id="image1"
       x="4842.8911"
       y="-2502.2512"
       inkscape:label="source_image.jpeg"
       transform="rotate(-0.30790777)"
       style="display:none"
       sodipodi:insensitive="true" /></g><g
     inkscape:groupmode="layer"
     id="layer2"
     inkscape:label="M"
     style="display:inline"
     sodipodi:insensitive="true"><path
       style="fill:#000000;fill-opacity:1"
       d="M 2096.8519,104 H 2271 L 2520,775.5 2819.4487,104 h 160.9263 c 3.375,0 4.3957,1.94047 4.3957,4.48079 0,2.19172 -4.0091,3.85581 -7.7292,3.85581 -39.6906,0 -73.1386,52.81739 -72.2549,86.56424 l 17.6929,675.66516 c 0.3447,13.16432 1.8171,69.40051 58.9231,87.62321 3.2792,1.0464 8.4679,1.48132 8.4679,4.95219 0,2.85839 -3.2374,4.8586 -5.7455,4.8586 h -232.9375 c -4.7899,0 -6.1862,-2.76283 -6.3607,-4.81313 -0.1745,-2.0503 1.1533,-4.40599 3.1393,-4.93813 14.7322,-3.94749 59.6494,-14.84883 62.6546,-94.7519 L 2795.0928,274.50797 2484.64,994.96548 2218.5756,283.34386 2177.2764,873.9494 c -2.7295,39.03386 14.0525,80.90837 41.1695,88.17434 6.5701,1.76044 12.0271,1.5 12.0271,4.93813 0,4.13343 -4.7795,4.93813 -9.973,4.93813 h -158.8328 c -3.4362,0 -5.429,-1.83698 -5.429,-3.93813 0,-2.22408 2.0173,-3.33669 3.5955,-3.93813 28.8078,-10.97838 60.4629,-24.3783 64.5669,-83.06869 L 2167.0595,271 c 3.48,-49.76646 11.1027,-158.77656 -68.265,-158.77656 -4.7911,0 -6.8173,-2.00677 -6.8173,-4.11172 0,-2.41633 1.9561,-4.11172 4.8747,-4.11172 z"
       id="path10"
       sodipodi:nodetypes="scccssscssssszsccccsssssssscsss"
       inkscape:label="M" /></g><g
     inkscape:groupmode="layer"
     id="layer4"
     inkscape:label="N"
     sodipodi:insensitive="true"
     style="display:inline"><path
       style="fill:#000000;fill-opacity:1"
       d="m 1229.3099,104 c 0,0 578.7329,689.70697 577.0811,687.73848 -1.4042,-1.67344 6.958,5.34281 11.2652,5.34281 4.9152,0 6.8947,-2.14784 6.8947,-5.34281 V 169.52885 c 0,-28.44448 -19.7753,-48.1276 -53.602,-57.52885 -2.1811,-0.60619 -4,-2.11438 -4,-4 0,-1.88562 1.3743,-4 4,-4 h 174.6554 c 0,0 4.125,0.91667 4,4 -0.125,3.08333 -4,4 -4,4 -35.7849,0 -72.1353,27.12326 -72.1353,63.53926 V 972 h -58.9495 L 1210.7917,252.50523 c -1.2057,-1.20566 -4.2926,-3.8007 -8.7456,-3.8007 -3.703,0 -6.6242,3.46707 -6.6242,7.8007 V 885.875 c 0,35.25798 30.6823,76.125 54.7031,76.125 4.0235,0 6,2.39658 6,5 0,2.60342 -3.3966,5 -6,5 H 1074.25 c -1.9897,0 -4,-2.86563 -4,-5 0,-2.57187 1.7491,-5 4,-5 30.2665,0 72.0198,-48.74671 72.0198,-86.75 V 196.22213 C 1146.2698,156.27021 1080.625,112 1080.625,112 c -1.7503,0 -4.2426,-2.04239 -4.2426,-4.35355 0,-2.05228 1.733,-3.64645 4.2426,-3.64645 z"
       id="path18"
       sodipodi:nodetypes="cssssszsczcccccscssssssssccscc"
       inkscape:label="N"
       sodipodi:insensitive="true" /></g><g
     inkscape:groupmode="layer"
     id="layer5"
     inkscape:label="L"
     style="display:inline"
     sodipodi:insensitive="true"><path
       style="fill:#000000;fill-opacity:1"
       d="m 3262.25,104 c -2.0741,0 -4,1.36438 -4,4 0,2.57312 2.4971,4 4,4 10.253,0 59.3896,39.23706 59.3896,74.25 V 860.5 c 0,38.67839 -26.3895,101.26258 -78.8896,101.5 -2.7828,0.0126 -4.9497,2.70662 -4.9497,4.91161 0,2.70499 2.0315,5.08839 4.9497,5.08839 H 3776.5 L 3821,801 c -85.5825,130.25687 -255.7033,119.65303 -274.1524,119.65303 -53.3076,0 -93.4466,-11.07318 -102.8069,-20.43348 -27.6636,-27.66361 -7.7006,-132.86633 -7.7006,-337.4967 V 242.97103 c 0,-97.08244 60.223,-130.97103 74.2575,-130.97103 1.8854,0 3.7858,-2.1798 3.8125,-3.90625 0.028,-1.78964 -2,-4.09375 -3.8125,-4.09375 z"
       id="path20"
       sodipodi:nodetypes="ssssssssccssccssss"
       inkscape:label="L"
       sodipodi:insensitive="true" /></g><g
     inkscape:groupmode="layer"
     id="layer6"
     inkscape:label="K"
     sodipodi:insensitive="true"
     style="display:inline"><path
       style="opacity:1;fill:#000000;fill-opacity:1"
       d="m 4206.0479,120 c -2.3228,0.004 -4,-2.11438 -4,-4 0,-1.88562 1.7201,-4 4,-4 h 243.2448 c 2.3125,0 4.3125,2.03934 4.3125,4 0,1.96066 -1.9301,3.99225 -4.3125,4 -55.2647,0.17977 -70.5372,78.17627 -70.5372,121.47697 V 493.9939 l 329.7686,-298.48431 c 16.0124,-14.49338 22.2451,-34.2855 22.2451,-49.66361 0,-20.9071 -33.5122,-33.84598 -35.2266,-33.84598 -1.5767,0 -4,-2.11438 -4,-4 0,-1.88562 1.6045,-4 4,-4 h 230.4613 c 2.1884,0 4,2.11438 4,4 0,1.88562 -2.7499,4 -4,4 -16.6356,0 -75.1362,25.96845 -126.0183,71.90313 l -323.8424,292.3542 374.5198,446.33536 c 25.9477,30.92327 77.0835,38.34012 78.9319,39.40731 1.7202,0.99314 4,2.86563 4,5 0,2.13437 -1.5,5 -4,5 h -236.4163 c -1.625,0 -4,-2.86563 -4,-5 0,-2.13437 1.5625,-5 4,-5 2.1344,0 12.9464,-8.48593 12.9464,-17.375 0,-8.66044 -9.927,-32.46302 -22.7688,-47.7673 L 4384.6853,540.91559 c -0.594,-0.70791 -1.3095,-0.93769 -1.9348,-0.93769 -2.1861,0 -3.995,3.47478 -3.995,6.79242 v 357.2657 c 0,35.54948 36.2379,57.96398 65.941,57.96398 3.5027,0 6,2.39658 6,5 0,2.60342 -2.1855,5 -6,5 h -249.432 c -2.3423,0 -4.6629,-2.86563 -4.6629,-5 0,-2.13437 2.2322,-5 4.6629,-5 C 4224.9249,962 4265,921.529 4265,889.89389 V 193.92404 C 4265,164.91327 4242.9229,119.9412 4206.0479,120 Z"
       id="path27"
       sodipodi:nodetypes="szsszsscssszsszsscsszsszsssssscszcszscss"
       inkscape:label="K"
       sodipodi:insensitive="true" /></g><g
     inkscape:groupmode="layer"
     id="layer7"
     inkscape:label="J"
     sodipodi:insensitive="true"
     style="display:inline"><path
       id="path20-5-0"
       style="display:inline;opacity:1;fill:#000000;fill-opacity:1"
       inkscape:label="J"
       d="m 5472.25,104 c -2.0741,0 -4,1.36438 -4,4 0,2.57312 2.4971,4 4,4 10.253,0 59.3887,39.23706 59.3887,74.25 V 641 c 0,220.65811 -47.3399,294.11984 -139.9176,352.25 -2.6875,1.6875 -7.8392,3.69262 -7.8392,7.546 0,3.8003 2.6944,7.546 8.1609,7.546 24.1549,0 249.8121,-36.33019 251.4686,-319.16181 L 5646.3398,206.25 c 0.3076,-52.51204 42.8857,-94.25 65.3887,-94.25 1.5029,0 4,-1.42688 4,-4 0,-2.63562 -1.9259,-4 -4,-4 z"
       sodipodi:nodetypes="ssssssssssssss" /></g><g
     inkscape:groupmode="layer"
     id="layer8"
     inkscape:label="I"
     style="display:inline"
     sodipodi:insensitive="true"><path
       id="path20-5"
       style="display:inline;opacity:1;fill:#000000;fill-opacity:1"
       inkscape:label="I"
       d="m 6444.2607,104 c -2.0741,0 -4,1.36438 -4,4 0,2.57312 2.497,4 4,4 10.2529,0 59.3887,39.23706 59.3887,74.25 v 683.5 c 0,52.51294 -48.6505,94.25 -67.3887,94.25 -1.503,0 -4,1.42688 -4,4 0,2.63562 1.9259,4 4,4 h 243.4785 c 2.0741,0 4,-1.36438 4,-4 0,-2.57312 -2.4971,-4 -4,-4 -10.253,0 -61.3888,-26.74313 -61.3888,-74.25 v -683.5 c 0,-52.51294 42.8857,-94.25 65.3888,-94.25 1.5029,0 4,-1.42688 4,-4 0,-2.63562 -1.9259,-4 -4,-4 z"
       sodipodi:nodetypes="sssssssssssssssss"
       sodipodi:insensitive="true" /></g><g
     inkscape:groupmode="layer"
     id="layer9"
     inkscape:label="H"
     style="display:inline"
     sodipodi:insensitive="true"><path
       id="path20-5-6"
       style="display:inline;opacity:1;fill:#000000;fill-opacity:1"
       inkscape:label="H"
       d="m 7153.2607,104 c -2.0741,0 -4,1.36438 -4,4 0,2.57312 2.497,4 4,4 10.2529,0 59.3887,39.23706 59.3887,74.25 v 683.5 c 0,52.51294 -48.6505,94.25 -67.3887,94.25 -1.503,0 -4,1.42688 -4,4 0,2.63562 1.9259,4 4,4 h 243.4785 c 2.0741,0 4,-1.36438 4,-4 0,-2.57312 -2.4971,-4 -4,-4 -10.253,0 -61.3906,-26.74313 -61.3906,-74.25 V 596.5 h 487.3008 v 273.25 c 0,52.51294 -48.6505,94.25 -67.3887,94.25 -1.503,0 -4,1.42688 -4,4 0,2.63562 1.9259,4 4,4 h 243.4785 c 2.0741,0 4,-1.36438 4,-4 0,-2.57312 -2.4971,-4 -4,-4 -10.253,0 -61.3906,-26.74313 -61.3906,-74.25 v -683.5 c 0,-52.51294 42.8875,-94.25 65.3906,-94.25 1.5029,0 4,-1.42688 4,-4 0,-2.63562 -1.9259,-4 -4,-4 h -239.4785 c -2.0741,0 -4,1.36438 -4,4 0,2.57312 2.497,4 4,4 10.2529,0 59.3887,39.23706 59.3887,74.25 V 545.5 H 7327.3486 V 206.25 c 0,-52.51294 42.8875,-94.25 65.3906,-94.25 1.5029,0 4,-1.42688 4,-4 0,-2.63562 -1.9259,-4 -4,-4 z"
       sodipodi:insensitive="true" /></g><g
     inkscape:groupmode="layer"
     id="layer10"
     inkscape:label="G"
     sodipodi:insensitive="true"><path
       id="path20-5-02"
       style="display:inline;opacity:1;fill:#000000;fill-opacity:1"
       inkscape:label="G"
       d="M 8635.8945,92.984375 C 8316.4368,92.984375 8163.5,304.68721 8163.5,536.25 c 0,101.82338 55.5068,447.86538 433.6816,447.86538 201.7954,0 357.9082,-106.34158 357.9082,-127.36538 v -169.5 c 0,-52.51294 42.8856,-94.25 65.3887,-94.25 1.5029,0 4,-1.42688 4,-4 0,-2.63562 -1.9259,-4 -4,-4 H 8781 c -2.0741,0 -4,1.36438 -4,4 0,2.57312 2.497,4 4,4 10.2529,0 59.3887,39.23706 59.3887,74.25 v 199.5 c 0,0 -80.9812,48.24609 -198.836,48.24609 C 8451.4449,914.99609 8285.5,747 8285.5,525.25 c 0,-95.13149 47.4016,-383.75 349,-383.75 224.3998,0 309.25,171.75 309.25,171.75 L 8922.5,143.5 c -2.2168,2.21677 -7.5965,0.90662 -12.8574,0.79102 -5.2609,-0.11559 -10.4029,-1.03662 -12.1426,-2.04102 -3.5543,-2.05206 -73.994,-49.265625 -261.6055,-49.265625 z"
       sodipodi:nodetypes="sssssssssssscsssccsss"
       sodipodi:insensitive="true" /></g><g
     inkscape:groupmode="layer"
     id="layer11"
     inkscape:label="F"><path
       id="path20-59"
       style="display:inline;opacity:1;fill:#000000;fill-opacity:1"
       inkscape:label="F"
       d="m 9314.0684,104.55078 c -2.9182,0 -4.9512,2.3829 -4.9512,5.08789 0,2.20499 2.1684,4.89951 4.9512,4.91211 52.5001,0.23742 78.8886,62.82161 78.8886,101.5 v 674.25 c 0,35.01294 -49.1356,74.25 -59.3886,74.25 -1.5029,0 -4,1.42688 -4,4 0,2.63562 1.9259,4 4,4 h 248.3457 c 1.8125,0 3.8405,-2.30411 3.8125,-4.09375 -0.027,-1.72645 -1.9271,-3.90625 -3.8125,-3.90625 -21.2845,0 -74.2559,-33.89021 -74.2559,-130.97266 V 531.74414 H 9700.5 c 53.6889,0 90.7227,16 111.2227,60 V 420.01367 c -18.5,45.5 -50.2227,64 -111.2227,64 H 9507.6582 V 193.75 c 0,-27.02332 12.8261,-33.85352 56.5059,-33.85352 169.7699,0 233.2201,-4.33911 284.1543,109.6543 l -18.5,-165 z"
       sodipodi:nodetypes="sssssssssssscsccscssccs" /></g></svg>
