<?xml version="1.0" encoding="UTF-8" standalone="no"?>
<!-- Created with Inkscape (http://www.inkscape.org/) -->

<svg
   height="1000"
   width="1000"
   sodipodi:docname="Prospero.svg"
   version="1.1"
   id="svg1"
   inkscape:version="1.4.4 (dcaf3e7d9e, 2026-05-05)"
   xml:space="preserve"
   inkscape:export-batch-name=""
   inkscape:export-batch-path="export"
   xmlns:inkscape="http://www.inkscape.org/namespaces/inkscape"
   xmlns:sodipodi="http://sodipodi.sourceforge.net/DTD/sodipodi-0.dtd"
   xmlns:xlink="http://www.w3.org/1999/xlink"
   xmlns="http://www.w3.org/2000/svg"
   xmlns:svg="http://www.w3.org/2000/svg"
   xmlns:rdf="http://www.w3.org/1999/02/22-rdf-syntax-ns#"
   xmlns:cc="http://creativecommons.org/ns#"
   xmlns:dc="http://purl.org/dc/elements/1.1/"><title
     id="title2">Prospero Font SVG Source</title><sodipodi:namedview
     id="base"
     pagecolor="#ffffff"
     bordercolor="#000000"
     borderopacity="0.3"
     inkscape:pageopacity="0.0"
     inkscape:pageshadow="2"
     inkscape:zoom="0.1767767"
     inkscape:cx="2005.3548"
     inkscape:cy="1767.767"
     inkscape:document-units="px"
     inkscape:current-layer="layer2"
     showgrid="false"
     showguides="false"
     showborder="true"
     inkscape:showpageshadow="false"
     inkscape:pagecheckerboard="0"
     inkscape:deskcolor="#d1d1d1"
     inkscape:window-width="1920"
     inkscape:window-height="1052"
     inkscape:window-x="0"
     inkscape:window-y="0"
     inkscape:window-maximized="1"><sodipodi:guide
       id="guide_baseline"
       inkscape:label="baseline"
       position="0,253"
       orientation="0,1"
       inkscape:locked="false" /><sodipodi:guide
       id="guide_ascender"
       inkscape:label="ascender"
       position="0,945"
       orientation="0,1"
       inkscape:locked="false" /><sodipodi:guide
       id="guide_caps"
       inkscape:label="caps"
       position="0,896"
       orientation="0,1"
       inkscape:locked="false" /><sodipodi:guide
       id="guide_xheight"
       inkscape:label="xheight"
       position="0,729"
       orientation="0,1"
       inkscape:locked="false" /><sodipodi:guide
       id="guide_descender"
       inkscape:label="descender"
       position="0,28"
       orientation="0,1"
       inkscape:locked="false" /><inkscape:page
       x="0"
       y="0"
       width="1000"
       height="1000"
       id="page2"
       margin="0"
       bleed="0"
       inkscape:label="Space" /><inkscape:page
       x="1010"
       y="0"
       width="1000"
       height="1000"
       id="page13"
       margin="0"
       bleed="0"
       inkscape:label="N" /><inkscape:page
       x="2020"
       y="0"
       width="1000"
       height="1000"
       id="page3"
       margin="0"
       bleed="0"
       inkscape:label="M" /><sodipodi:guide
       position="1236.0227,888"
       orientation="0.76604444,0.64278761"
       id="guide3"
       inkscape:locked="false"
       inkscape:label=""
       inkscape:color="rgb(246,97,81)" /><sodipodi:guide
       position="1088.7945,888"
       orientation="0,1"
       id="guide11"
       inkscape:locked="false"
       inkscape:label=""
       inkscape:color="rgb(220,138,221)" /><sodipodi:guide
       position="1978,68.74313"
       orientation="0,-1"
       id="guide12"
       inkscape:locked="false" /><sodipodi:guide
       position="1992.9225,38"
       orientation="0,1"
       id="guide13"
       inkscape:locked="false"
       inkscape:label=""
       inkscape:color="rgb(220,138,221)" /><sodipodi:guide
       position="1146.2698,537.51902"
       orientation="-1,0"
       id="guide14"
       inkscape:locked="false"
       inkscape:label=""
       inkscape:color="rgb(246,97,81)" /><sodipodi:guide
       position="1195.4219,253"
       orientation="-1,0"
       id="guide15"
       inkscape:locked="false"
       inkscape:label=""
       inkscape:color="rgb(246,97,81)" /><sodipodi:guide
       position="1340.6745,592.70649"
       orientation="0.76604444,0.64278761"
       id="guide16"
       inkscape:locked="false"
       inkscape:label=""
       inkscape:color="rgb(0,134,229)" /><sodipodi:guide
       position="1824.5509,193.27955"
       orientation="-1,0"
       id="guide17"
       inkscape:locked="false"
       inkscape:label=""
       inkscape:color="rgb(246,97,81)" /><sodipodi:guide
       position="1867.469,230.66782"
       orientation="1,0"
       id="guide18"
       inkscape:locked="false" /><inkscape:page
       x="3030"
       y="0"
       width="1000"
       height="1000"
       id="page18"
       margin="0"
       bleed="0"
       inkscape:label="L" /><sodipodi:guide
       position="3321.6396,542.28094"
       orientation="1,0"
       id="guide19"
       inkscape:locked="false" /><sodipodi:guide
       position="3436.3401,527.48694"
       orientation="1,0"
       id="guide20"
       inkscape:locked="false" /></sodipodi:namedview><defs
     id="defs4" /><metadata
     id="metadata7"><rdf:RDF><cc:Work
         rdf:about=""><dc:format>image/svg+xml</dc:format><dc:type
           rdf:resource="http://purl.org/dc/dcmitype/StillImage" /><dc:title>Prospero Font SVG Source</dc:title><dc:date>July 18, 2026</dc:date><dc:creator><cc:Agent><dc:title>Dave Jeffery</dc:title></cc:Agent></dc:creator><dc:contributor><cc:Agent><dc:title>Font originally designed by Alan Jeapes of the British Broadcasting Corporation.</dc:title></cc:Agent></dc:contributor><cc:license
           rdf:resource="http://scripts.sil.org/OFL" /><dc:rights><cc:Agent><dc:title>released under Open Font Licence</dc:title></cc:Agent></dc:rights><dc:publisher><cc:Agent><dc:title>Dave Jeffery</dc:title></cc:Agent></dc:publisher><dc:language>British English</dc:language><dc:subject><rdf:Bag><rdf:li>COW</rdf:li><rdf:li>Jeapes</rdf:li><rdf:li>BBC</rdf:li><rdf:li>BBC ONE</rdf:li><rdf:li>BBC1</rdf:li><rdf:li>GEM</rdf:li><rdf:li>1985</rdf:li></rdf:Bag></dc:subject><dc:source>Scan obtained by Mark Boulton from Alan Jeapes's son.</dc:source></cc:Work><cc:License
         rdf:about="http://scripts.sil.org/OFL"><cc:permits
           rdf:resource="http://scripts.sil.org/pub/OFL/Reproduction" /><cc:permits
           rdf:resource="http://scripts.sil.org/pub/OFL/Distribution" /><cc:permits
           rdf:resource="http://scripts.sil.org/pub/OFL/Embedding" /><cc:permits
           rdf:resource="http://scripts.sil.org/pub/OFL/DerivativeWorks" /><cc:requires
           rdf:resource="http://scripts.sil.org/pub/OFL/Notice" /><cc:requires
           rdf:resource="http://scripts.sil.org/pub/OFL/Attribution" /><cc:requires
           rdf:resource="http://scripts.sil.org/pub/OFL/ShareAlike" /><cc:requires
           rdf:resource="http://scripts.sil.org/pub/OFL/DerivativeRenaming" /><cc:requires
           rdf:resource="http://scripts.sil.org/pub/OFL/BundlingWhenSelling" /></cc:License></rdf:RDF></metadata><g
     id="layer1"
     inkscape:groupmode="layer"
     inkscape:label="construction"
     style="display:none"
     transform="translate(-64.828427,-187.73312)"
     sodipodi:insensitive="true"><image
       width="12064.083"
       height="9048.0625"
       preserveAspectRatio="none"
       xlink:href="source_image.jpeg"
       id="image1"
       x="-5057.4844"
       y="-2547.5986"
       inkscape:label="source_image.jpeg"
       transform="rotate(-0.48461653)"
       style="display:none"
       sodipodi:insensitive="true" /></g><g
     inkscape:groupmode="layer"
     id="layer2"
     inkscape:label="M"
     style="display:inline"><path
       style="fill:#000000;fill-opacity:1"
       d="M 2096.8519,104 H 2271 L 2520,775.5 2819.4487,104 h 160.9263 c 3.375,0 4.3957,1.94047 4.3957,4.48079 0,2.19172 -4.0091,3.85581 -7.7292,3.85581 -39.6906,0 -73.1386,52.81739 -72.2549,86.56424 l 17.6929,675.66516 c 0.3447,13.16432 1.8171,69.40051 58.9231,87.62321 3.2792,1.0464 8.4679,1.48132 8.4679,4.95219 0,2.85839 -3.2374,4.8586 -5.7455,4.8586 h -232.9375 c -4.7899,0 -6.1862,-2.76283 -6.3607,-4.81313 -0.1745,-2.0503 1.1533,-4.40599 3.1393,-4.93813 14.7322,-3.94749 59.6494,-14.84883 62.6546,-94.7519 L 2795.0928,274.50797 2484.64,994.96548 2218.5756,283.34386 2177.2764,873.9494 c -2.7295,39.03386 14.0525,80.90837 41.1695,88.17434 6.5701,1.76044 12.0271,1.5 12.0271,4.93813 0,4.13343 -4.7795,4.93813 -9.973,4.93813 h -158.8328 c -3.4362,0 -5.429,-1.83698 -5.429,-3.93813 0,-2.22408 2.0173,-3.33669 3.5955,-3.93813 28.8078,-10.97838 60.4629,-24.3783 64.5669,-83.06869 L 2167.0595,271 c 3.48,-49.76646 11.1027,-158.77656 -68.265,-158.77656 -4.7911,0 -6.8173,-2.00677 -6.8173,-4.11172 0,-2.41633 1.9561,-4.11172 4.8747,-4.11172 z"
       id="path10"
       sodipodi:nodetypes="scccssscssssszsccccsssssssscsss"
       inkscape:label="M" /></g><g
     inkscape:groupmode="layer"
     id="layer4"
     inkscape:label="N"
     sodipodi:insensitive="true"
     style="display:inline"><path
       style="fill:#000000;fill-opacity:1"
       d="m 1229.3099,104 c 0,0 578.7329,689.70697 577.0811,687.73848 -1.4042,-1.67344 6.958,5.34281 11.2652,5.34281 4.9152,0 6.8947,-2.14784 6.8947,-5.34281 V 169.52885 c 0,-28.44448 -19.7753,-48.1276 -53.602,-57.52885 -2.1811,-0.60619 -4,-2.11438 -4,-4 0,-1.88562 1.3743,-4 4,-4 h 174.6554 c 0,0 4.125,0.91667 4,4 -0.125,3.08333 -4,4 -4,4 -35.7849,0 -72.1353,27.12326 -72.1353,63.53926 V 972 h -58.9495 L 1210.7917,252.50523 c -1.2057,-1.20566 -4.2926,-3.8007 -8.7456,-3.8007 -3.703,0 -6.6242,3.46707 -6.6242,7.8007 V 885.875 c 0,35.25798 30.6823,76.125 54.7031,76.125 4.0235,0 6,2.39658 6,5 0,2.60342 -3.3966,5 -6,5 H 1074.25 c -1.9897,0 -4,-2.86563 -4,-5 0,-2.57187 1.7491,-5 4,-5 30.2665,0 72.0198,-48.74671 72.0198,-86.75 V 196.22213 C 1146.2698,156.27021 1080.625,112 1080.625,112 c -1.7503,0 -4.2426,-2.04239 -4.2426,-4.35355 0,-2.05228 1.733,-3.64645 4.2426,-3.64645 z"
       id="path18"
       sodipodi:nodetypes="cssssszsczcccccscssssssssccscc"
       inkscape:label="N"
       sodipodi:insensitive="true" /></g><g
     inkscape:groupmode="layer"
     id="layer5"
     inkscape:label="L"
     sodipodi:insensitive="true"><path
       style="fill:#000000;fill-opacity:1"
       d="m 3262.25,104 c -2.0741,0 -4,1.36438 -4,4 0,2.57312 2.4971,4 4,4 10.253,0 59.3896,39.23706 59.3896,74.25 V 860.5 c 0,38.67839 -26.3895,101.26258 -78.8896,101.5 -2.7828,0.0126 -4.9497,2.70662 -4.9497,4.91161 0,2.70499 2.0315,5.08839 4.9497,5.08839 H 3776.5 L 3821,801 c -85.5825,130.25687 -255.7033,119.65303 -274.1524,119.65303 -53.3076,0 -93.4466,-11.07318 -102.8069,-20.43348 -27.6636,-27.66361 -7.7006,-132.86633 -7.7006,-337.4967 V 242.97103 c 0,-97.08244 60.223,-130.97103 74.2575,-130.97103 1.8854,0 3.7858,-2.1798 3.8125,-3.90625 0.028,-1.78964 -2,-4.09375 -3.8125,-4.09375 z"
       id="path20"
       sodipodi:nodetypes="ssssssssccssccssss"
       inkscape:label="L"
       sodipodi:insensitive="true" /></g></svg>
